<svg viewBox="0 0 464.07 466.29" xmlns="http://www.w3.org/2000/svg"><g fill="#24428f"><g transform="translate(-113.93 -16.71)"><path d="m465.05 433a18 18 0 1 0 -17.78 18.2 18 18 0 0 0 17.78-18.2"/><path d="m555 362.72a18 18 0 1 0 -17.77 18.2 18 18 0 0 0 17.77-18.2"/><path d="m174.59 142.08a18 18 0 1 0 -17.78 18.21 18 18 0 0 0 17.78-18.21"/><path d="m578 253.78a18 18 0 1 0 -17.78 18.22 18 18 0 0 0 17.78-18.22"/><path d="m149.91 253.78a18 18 0 1 0 -17.77 18.22 18 18 0 0 0 17.77-18.2"/><path d="m257.94 60.07a18 18 0 1 0 -17.77 18.2 18 18 0 0 0 17.77-18.2"/><path d="m361.4 464.79a18 18 0 1 0 -17.77 18.21 18 18 0 0 0 17.77-18.21"/><path d="m174.59 362.72a18 18 0 1 0 -17.78 18.2 18 18 0 0 0 17.78-18.2"/><path d="m257.94 433a18 18 0 1 0 -17.77 18.2 18 18 0 0 0 17.77-18.2"/><path d="m328.29 32.42a15.14 15.14 0 0 0 15.3 14.95c.44 0 .87 0 1.29-.09h.3c51.92.35 94.18 15.42 125.58 44.77 24.35 22.75 33.95 46.8 36.32 53.63l.07.25a15.06 15.06 0 0 0 14.66 11.51h.19a15.05 15.05 0 0 0 14.42-19l-.71-2.68.22-.07c-2.9-8.22-13.22-33.6-37.36-58.87-25.89-27.12-73.25-59.35-152.36-60.11v.35l-2.93.06h-.2a15.12 15.12 0 0 0 -14.79 15.3z"/><path d="m336.21 261.92 4 8.12 134.39-80.61-4.53-8.56-142.57 63.13 2.75 5.65a6.9 6.9 0 0 1 6 12.26z"/><path d="m332.56 261.6a6 6 0 0 1 -.1-.86 6.92 6.92 0 0 1 13.84-.25 6.52 6.52 0 0 1 -.11 1.33l6.28.1.06-1.14-14.53-184.93-9.69.18-4.85 184.71v.71z"/></g><path d="m226.22 253.33-16.63-8.59 9.45-17.94 16.43 8.26z"/></g></svg>