<svg viewBox="0 0 732.43 1065.9" xmlns="http://www.w3.org/2000/svg"><g fill="none" stroke="#24428f" stroke-miterlimit="10" stroke-width="40" transform="translate(-330.9 -24.68)"><path d="m378.82 137.87c2.2.57 12.33 1.75 22.4 3.13 83.5 11.5 172.56 58 227.51 138.87l7.88 11.6-6.8 5.59c-28.6 23.51-148.87 177.61-160.12 232.81-4.08 20-1.25 36.28 8.59 49.5 4.64 6.24 11.94 11.78 18.24 13.85 2.59.85 49.2 9.9 103.7 20.13 97.8 18.36 107.43 19.85 116.7 18.05 3.4-.66 3.9-.47 4.75 1.76s-2.11 9.3-20 49.1c-36.55 81.3-71.93 195.62-104.61 262.9-16.9 34.8-18.91 40.91-17.93 54.4 1.46 20 13.67 39.65 31.29 50.35 27.9 16.94 59 11.89 75.43-12.25 8.55-12.58 71.1-183.2 117.87-287.4 10.64-23.7 19.59-43.34 19.95-43.75s5 9 10.31 21c31.22 70.47 54 190.5 84.51 278.5 6.3 18.2 12.84 35.65 14.57 38.9 6.53 12.26 20 22.12 33.66 24.7 25.6 4.83 55.39-9.87 68.91-34 4.21-7.52 5.87-12.5 7.12-21.4 1.62-11.49.14-19.4-8.23-44.1-41.1-121.3-81-280-127.26-372.4-8.4-16.8-18.64-39-22.8-49.5-36.6-92.04-115.11-240.21-155.67-293.84-2.77-3.66-7.83-11.1-11.16-16.4-19.77-31.5-46.8-62.79-73.61-87.42-64.29-59-134.65-98.92-225.69-105.43-22.6-1.62-37.12.83-50.58 14.3-26.75 26.78-20.63 70.15 11.07 78.45zm281.64 359.7c13.62 18.25 29.8 42.49 28.93 43.35-.68.68-112.17-19.72-113.15-20.7-.27-.27 1.53-4 4-8.33a276.5 276.5 0 0 1 36.65-49.84c3.85-4.16 7.46-7.59 8-7.59 1.31 0 23.06 26.33 35.58 43.11z"/><path d="m528.87 199.61c21.37 3.9 37.9 12.93 52.53 28.69 15.37 16.56 22.82 34.34 24.07 57.45.87 16-2 29.42-9.31 44.15-11.48 23-28.69 37.95-53.55 46.48-10 3.42-11 3.56-27.26 3.6-19.73.05-25.73-1.22-41-8.74-33-16.23-52.32-49.74-50.22-86.92a89.66 89.66 0 0 1 51.31-76.47 114.78 114.78 0 0 1 17-6.55c8.39-2.12 28.88-3.09 36.41-1.71z"/></g></svg>