<svg viewBox="0 0 58.07 58.07" xmlns="http://www.w3.org/2000/svg"><circle cx="29.04" cy="29.04" fill="#fcab1b" r="29.04"/><path d="m48.33 34.35v-17.16l-7.25-.42c-1.19-.27-2.59-2-3.66-2.58-5.42-3-15.73-2-18.43-.52a2.85 2.85 0 0 0 -1.66 2.33c-.25 1.75 1.47 1.7 1 1.88-1.19.5-3 1.5-3.45 3.07a2.93 2.93 0 0 0 .68 2.9.57.57 0 0 1 -.11.87c-.65.39-2.05.78-2.05 2.78 0 1.42 1.14 1.94 1.59 2.38a.6.6 0 0 1 0 .9 4 4 0 0 0 -2 3.72c0 2.56 4.65 3.22 12.83 3.61a1 1 0 0 1 .89 1.3c-1.15 3.41-3.75 12.67 2 12.67 4.42 0-.83-7.58 8.4-11.74 1.42-.64 3-3.19 4.27-4.26 1.91-1.56 4.96-1.53 6.95-1.73z" fill="#fff" transform="translate(-.96 -1.83)"/></svg>