<svg viewBox="0 0 604.2 393" xmlns="http://www.w3.org/2000/svg"><path d="m11.9 744.8s-12 0-12 12v160.2s0 12 12 12h580.2s12 0 12-12v-160.2s0-12-12-12z" fill="#004990" transform="translate(.1 -536)"/><path d="m290.3 881.6a172.8 172.8 0 1 0 -172.8-172.8 172.8 172.8 0 0 0 172.8 172.8" fill="#004990" transform="translate(.1 -536)"/><path d="m192.21 763.94a7.24 7.24 0 0 1 -6.28-3.62 124.31 124.31 0 1 1 215.31-124.32 7.25 7.25 0 1 1 -12.55 7.25 109.82 109.82 0 1 0 -190.21 109.82 7.25 7.25 0 0 1 -6.27 10.87z" fill="#fff" transform="translate(.1 -536)"/><path d="m243.14 807.22a9.42 9.42 0 1 0 -12.87-3.45 9.42 9.42 0 0 0 12.87 3.45" fill="#fff" transform="translate(.1 -536)"/><path d="m302.69 814.69a9.42 9.42 0 1 0 -12.87-3.45 9.42 9.42 0 0 0 12.87 3.45" fill="#fff" transform="translate(.1 -536)"/><path d="m356 796.06a9.42 9.42 0 1 0 -12.87-3.45 9.42 9.42 0 0 0 12.87 3.45" fill="#fff" transform="translate(.1 -536)"/><path d="m393.72 754.18a9.42 9.42 0 1 0 -12.87-3.45 9.42 9.42 0 0 0 12.87 3.45" fill="#fff" transform="translate(.1 -536)"/><path d="m407.33 699.45a9.42 9.42 0 1 0 -12.88-3.45 9.42 9.42 0 0 0 12.87 3.45" fill="#fff" transform="translate(.1 -536)"/><path d="m224.6 204.14 2.53 4.4 73.97-36.02 81.09-53.5-2.54-4.4-85.9 44.58z" fill="#fff"/><g transform="translate(.1 -536)"><path d="m299.55 705.59a3.63 3.63 0 1 0 -5-1.33 3.62 3.62 0 0 0 5 1.33" fill="#004990"/><path d="m133.17 853.74a9.38 9.38 0 0 1 3.63 5.83c.52 2.66.58 4.28.58 13.61 0 12.57-.19 14.19-1.88 17a9.81 9.81 0 0 1 -6 4.21c-1.81.58-4.54.78-9.33.78-7.52 0-10.11-.52-13-2.53a9.37 9.37 0 0 1 -3.63-5.83c-.52-2.72-.58-4.34-.58-13.93 0-12.12.19-13.87 1.88-16.72a9.82 9.82 0 0 1 6-4.21c1.75-.52 4.67-.78 9.33-.78 7.56.04 10.09.56 13 2.57zm-23.07 6.93c-.52 1.62-.71 4.79-.71 12.51 0 8.29.19 11.28.91 13.09 1 2.53 3 3.17 9.92 3.17 7.19 0 9.07-.78 10-4.15.45-1.62.65-5.44.65-12.44 0-8.29-.19-10.89-.91-12.7-1-2.46-3.18-3.18-10-3.18-7.07.03-8.82.65-9.86 3.7z" fill="#fff"/><path d="m170.11 872.59c5.9 1.1 7.45 3.17 7.45 10 0 10.17-3.11 12.57-16.27 12.57-13.74 0-16.78-2.27-16.78-12.44 0-6.93 1.69-9.2 7.52-10.24v-.13c-2.66-.65-3.76-1-4.73-1.94-1.49-1.3-2.2-4-2.2-7.84 0-4.34.91-7.26 2.72-8.81 2.33-2 5.31-2.59 13.16-2.59 8.17 0 11 .52 13.22 2.46 1.88 1.68 2.85 4.67 2.85 9.07 0 6.35-1.49 8.42-6.93 9.72zm-18.11 4.6c-.78 1-1 2.07-1 4.93 0 6.93.71 7.45 10.37 7.45 8.49 0 9.72-1 9.72-7.52 0-5.9-1.23-6.74-10.3-6.74-5.79.01-7.72.39-8.79 1.88zm-.39-14c0 3 .32 4.47 1.36 5.44s2.92 1.3 9.07 1.3c7.39 0 8.55-.91 8.55-6.74s-.91-6.48-9.46-6.48c-8.84.01-9.56.53-9.56 6.49z" fill="#fff"/><path d="m192.27 871.43h-6.16v-6.87h6.16zm0 23.39h-6.16v-6.82h6.16z" fill="#fff"/><path d="m229 853.74a9.38 9.38 0 0 1 3.63 5.83c.52 2.66.58 4.28.58 13.61 0 12.57-.19 14.19-1.88 17a9.81 9.81 0 0 1 -6 4.21c-1.81.58-4.54.78-9.33.78-7.52 0-10.11-.52-13-2.53a9.37 9.37 0 0 1 -3.63-5.83c-.52-2.72-.58-4.34-.58-13.93 0-12.12.19-13.87 1.88-16.72a9.82 9.82 0 0 1 6-4.21c1.75-.52 4.67-.78 9.33-.78 7.57.04 10.09.56 13 2.57zm-23.07 6.93c-.52 1.62-.71 4.79-.71 12.51 0 8.29.19 11.28.91 13.09 1 2.53 3 3.17 9.92 3.17 7.19 0 9.07-.78 10-4.15.45-1.62.65-5.44.65-12.44 0-8.29-.19-10.89-.91-12.7-1-2.46-3.18-3.18-10-3.18-7.06.03-8.79.65-9.85 3.7z" fill="#fff"/><path d="m269.25 853.74a9.38 9.38 0 0 1 3.63 5.83c.52 2.66.58 4.28.58 13.61 0 12.57-.19 14.19-1.88 17a9.81 9.81 0 0 1 -6 4.21c-1.81.58-4.54.78-9.33.78-7.52 0-10.11-.52-13-2.53a9.37 9.37 0 0 1 -3.63-5.83c-.52-2.72-.58-4.34-.58-13.93 0-12.12.19-13.87 1.88-16.72a9.82 9.82 0 0 1 6-4.21c1.75-.52 4.67-.78 9.33-.78 7.56.04 10.08.56 13 2.57zm-23.07 6.93c-.52 1.62-.71 4.79-.71 12.51 0 8.29.19 11.28.91 13.09 1 2.53 3 3.17 9.92 3.17 7.19 0 9.07-.78 10-4.15.45-1.62.65-5.44.65-12.44 0-8.29-.19-10.89-.91-12.7-1-2.46-3.18-3.18-10-3.18-7.04.03-8.82.65-9.86 3.7z" fill="#fff"/><path d="m322.45 876.29v5.57h-26.25v-5.57z" fill="#fff"/><path d="m356.66 894.82h-6.66v-37.65l-11.15 11.6-4.08-4.15 13.09-13h8.81z" fill="#fff"/><path d="m401.76 879.92h5.64v5.31h-5.64v9.59h-6.67v-9.59h-23.72v-7.65l20.09-26h10.3zm-6.67-23.52h-.19l-18 23.52h18.21z" fill="#fff"/><path d="m420.1 871.43h-6.16v-6.87h6.16zm0 23.39h-6.16v-6.82h6.16z" fill="#fff"/><path d="m456.84 853.74a9.38 9.38 0 0 1 3.63 5.83c.52 2.66.58 4.28.58 13.61 0 12.57-.19 14.19-1.88 17a9.81 9.81 0 0 1 -6 4.21c-1.81.58-4.54.78-9.33.78-7.52 0-10.11-.52-13-2.53a9.37 9.37 0 0 1 -3.63-5.83c-.52-2.72-.58-4.34-.58-13.93 0-12.12.19-13.87 1.88-16.72a9.82 9.82 0 0 1 6-4.21c1.75-.52 4.67-.78 9.33-.78 7.56.04 10.09.56 13 2.57zm-23.07 6.93c-.52 1.62-.71 4.79-.71 12.51 0 8.29.19 11.28.91 13.09 1 2.53 3 3.17 9.92 3.17 7.19 0 9.07-.78 10-4.15.45-1.62.65-5.44.65-12.44 0-8.29-.19-10.89-.91-12.7-1-2.46-3.18-3.18-10-3.18-7.07.03-8.82.65-9.86 3.7z" fill="#fff"/><path d="m497.08 853.74a9.38 9.38 0 0 1 3.63 5.83c.52 2.66.58 4.28.58 13.61 0 12.57-.19 14.19-1.88 17a9.81 9.81 0 0 1 -6 4.21c-1.81.58-4.54.78-9.33.78-7.52 0-10.11-.52-13-2.53a9.37 9.37 0 0 1 -3.63-5.83c-.52-2.72-.58-4.34-.58-13.93 0-12.12.19-13.87 1.88-16.72a9.82 9.82 0 0 1 6-4.21c1.75-.52 4.67-.78 9.33-.78 7.56.04 10.09.56 13 2.57zm-23.08 6.93c-.52 1.62-.71 4.79-.71 12.51 0 8.29.19 11.28.91 13.09 1 2.53 3 3.17 9.92 3.17 7.19 0 9.07-.78 10-4.15.45-1.62.65-5.44.65-12.44 0-8.29-.19-10.89-.91-12.7-1-2.46-3.18-3.18-10-3.18-7.06.03-8.86.65-9.86 3.7z" fill="#fff"/></g></svg>