<svg enable-background="new 0 0 426.1 420" viewBox="0 0 426.1 420" xmlns="http://www.w3.org/2000/svg"><g fill="#24428f"><path d="m195.2.4c-51.5 4.7-97.5 26-133.4 61.7-34.5 34.4-54.9 76.2-60.8 125-1.3 10.6-1.4 32.9-.3 43.3 5.3 50 26.9 94.6 62.5 129.2 34.7 33.7 76.2 53.3 125.9 59.6 10.3 1.3 40.1 1.1 50.9-.3 58.9-7.8 110.6-38 145.4-84.8 21.2-28.5 34.3-60.8 39.5-97.8 1.6-11 1.5-41.4 0-52.6-6.6-46.8-26.6-87.7-59-120.3-16.3-16.6-35.3-30.4-56.2-40.7-22-11.1-45.8-18.3-70.3-21.3-9.5-1.2-35.1-1.7-44.2-.9zm35 21c79.5 7.3 145.7 61 167.7 136 5.3 18.1 7.3 32.4 7.3 52.6 0 15.5-.7 22.8-3.2 36.1-14.1 73-71.4 131.5-145.3 148.4-26.6 5.8-54.1 6.3-80.8 1.3-38.7-7.5-74.1-26.7-101.5-55.1-29.6-30.3-47.4-67.9-52.4-110.4-1.3-11.1-.9-36.6.7-46.7 6.6-41.9 24-76.4 53.1-105.7 11.4-11.4 17.2-16.3 28.6-24 26.9-18.1 57.8-29.2 90-32.4 11.9-.8 23.8-.8 35.8-.1z"/><path d="m204.4 251.4-8.4-105.4v-78.4h34.2v78.4l-8.2 105.4zm-8.4 66.1v-41.1h34.2v41.1z"/></g></svg>