<svg viewBox="0 0 373.74 431.36" xmlns="http://www.w3.org/2000/svg"><g transform="translate(-185.97 -33.47)"><path d="m516.54 436.51s-3.34 18.34-26.73 18.34h-234.65c-23.38 0-26.72-18.34-26.72-18.34s-15.6-123.51-8.35-123.51h305.51c7.25 0-9.06 123.51-9.06 123.51z" fill="#5a9fd8"/><path d="m342.37 42.47h-135.13a12.27 12.27 0 0 0 -12.24 13.45l33.8 346.46s3.34 53.45 26.72 53.45h234.65c23.39 0 26.73-53.45 26.73-53.45l33.76-346.46a12.27 12.27 0 0 0 -12.21-13.45z" fill="none" stroke="#274490" stroke-miterlimit="10" stroke-width="18"/><path d="m284.56 313.86v91a9 9 0 0 1 -18 0v-91a7.56 7.56 0 0 1 0-.83h17.92a7.56 7.56 0 0 1 .08.83z" fill="#adcfec"/><g fill="#274490"><path d="m256.59 172.14 34.29-29.36a42.54 42.54 0 0 0 8.46-9.2 16.22 16.22 0 0 0 2.83-8.81q0-7.56-4.24-10.78t-13.83-3.21a86.75 86.75 0 0 0 -24.83 3.78v-13.35a87.45 87.45 0 0 1 13.4-2.78 114.11 114.11 0 0 1 14.26-.88q17.63 0 25.68 6t8 19.21a26.47 26.47 0 0 1 -3.46 13 45.62 45.62 0 0 1 -10.51 12.28l-26.53 22.81h40.78v12.85h-64.3z"/><path d="m400 111.28h-41v21.55q5.09-.37 10.16-.38 18.63 0 27 6.24t8.32 20q0 14-9.38 20.28t-30.55 6.3a92.66 92.66 0 0 1 -24.7-3.15v-12.88a79.25 79.25 0 0 0 23.29 3.4q12.27 0 17.64-3.34t5.36-11q0-7.56-5.65-10.84t-18.49-3.29q-4.8 0-9.67.19c-3.24.12-6.56.36-9.95.69v-46h57.62z"/><path d="m416.61 141.4a84.52 84.52 0 0 1 2-19.91 33.27 33.27 0 0 1 6.49-13.61 26.34 26.34 0 0 1 11.29-7.81 54.89 54.89 0 0 1 32.88 0 26.23 26.23 0 0 1 11.29 7.81 33 33 0 0 1 6.49 13.61 84 84 0 0 1 2.05 19.91 83.86 83.86 0 0 1 -2.05 19.9 33 33 0 0 1 -6.49 13.61 26.23 26.23 0 0 1 -11.29 7.81 54.89 54.89 0 0 1 -32.88 0 26.34 26.34 0 0 1 -11.29-7.81 33.21 33.21 0 0 1 -6.49-13.61 84.43 84.43 0 0 1 -2-19.9zm17.21 0q0 16.24 4.52 23.43t14.53 7.17q10 0 14.54-7.18t4.51-23.43q0-16.26-4.51-23.44t-14.54-7.18q-10 0-14.53 7.18t-4.52 23.45z"/><path d="m350 217.49-19.7 28.2-11.65-16.8-7.91-11.4h-17v58.8h16.14v-37l15.05 21.12h10.67l15.05-21.12v37h16.14v-58.8z"/><path d="m393.32 217.49v19.92q0 14.4-3.15 20.94t-10.12 6.54h-1.5v12.24a8.19 8.19 0 0 0 1.43.12h1.44a36.2 36.2 0 0 0 13.27-2.16 20.17 20.17 0 0 0 9-6.84 30.57 30.57 0 0 0 5.06-12 85.09 85.09 0 0 0 1.58-17.64v-9.48h22.43v47.16h17.51v-58.8z"/></g></g></svg>