<svg viewBox="0 0 58.07 58.07" xmlns="http://www.w3.org/2000/svg"><circle cx="29.04" cy="29.04" fill="#4fa0d8" r="29.04"/><path d="m13 27.67v17.16l7.25.42c1.19.27 2.6 2 3.67 2.58 5.41 3 15.73 2 18.42.52a2.85 2.85 0 0 0 1.66-2.35c.25-1.75-1.46-1.69-1-1.88 1.19-.5 3-1.5 3.44-3.07a2.93 2.93 0 0 0 -.68-2.9.57.57 0 0 1 .12-.87c.64-.39 2.05-.78 2.05-2.78 0-1.42-1.15-1.94-1.6-2.38a.61.61 0 0 1 0-.9 4 4 0 0 0 2-3.72c0-2.56-4.64-3.22-12.83-3.61a1 1 0 0 1 -.89-1.3c1.15-3.41 3.75-12.67-2-12.67-4.41 0 .84 7.58-8.4 11.74-1.42.64-3 3.19-4.26 4.26-1.95 1.58-4.95 1.55-6.95 1.75z" fill="#fff" transform="translate(-.96 -1.83)"/></svg>