<svg viewBox="0 0 604.2 393" xmlns="http://www.w3.org/2000/svg"><g transform="translate(-818.4 -622)"><path d="m830.4 830.8s-12 0-12 12v160.2s0 12 12 12h580.2s12 0 12-12v-160.2s0-12-12-12z" fill="#004990"/><path d="m1108.8 967.6a172.8 172.8 0 1 0 -172.8-172.8 172.8 172.8 0 0 0 172.8 172.8" fill="#004990"/><g fill="#fff"><path d="m1108.13 901.23a124.4 124.4 0 0 1 -107.87-62.14 7.25 7.25 0 0 1 12.55-7.25 109.82 109.82 0 1 0 190.19-109.84 7.25 7.25 0 0 1 12.55-7.25 124.28 124.28 0 0 1 -107.45 186.45z"/><path d="m1158.36 667.88a9.42 9.42 0 1 0 12.87 3.45 9.42 9.42 0 0 0 -12.87-3.45"/><path d="m1098.81 660.41a9.42 9.42 0 1 0 12.87 3.45 9.42 9.42 0 0 0 -12.87-3.45"/><path d="m1045.53 679a9.42 9.42 0 1 0 12.87 3.45 9.42 9.42 0 0 0 -12.87-3.45"/><path d="m1007.78 720.93a9.42 9.42 0 1 0 12.87 3.45 9.42 9.42 0 0 0 -12.87-3.45"/><path d="m994.17 775.65a9.42 9.42 0 1 0 12.83 3.45 9.42 9.42 0 0 0 -12.87-3.45"/><path d="m1174.46 730.57-74 36-81.09 53.51 2.54 4.4 85.9-44.58 69.19-44.9zm-68.89 45.22a3.63 3.63 0 1 1 1.33-5 3.63 3.63 0 0 1 -1.33 5z"/><path d="m944.06 980.82h-6.67v-37.65l-11.15 11.6-4.08-4.15 13.09-13h8.81z"/><path d="m989.16 965.92h5.64v5.31h-5.64v9.59h-6.67v-9.59h-23.73v-7.65l20.09-26h10.3zm-6.67-23.52h-.19l-18 23.52h18.21z"/><path d="m1007.49 957.43h-6.16v-6.87h6.16zm0 23.39h-6.16v-6.82h6.16z"/><path d="m1044.24 939.74a9.37 9.37 0 0 1 3.63 5.83c.52 2.66.58 4.28.58 13.61 0 12.57-.19 14.19-1.88 17a9.81 9.81 0 0 1 -6 4.21c-1.82.58-4.54.78-9.33.78-7.52 0-10.11-.52-13-2.53a9.37 9.37 0 0 1 -3.63-5.83c-.52-2.72-.58-4.34-.58-13.93 0-12.12.19-13.87 1.88-16.72a9.81 9.81 0 0 1 6-4.21c1.75-.52 4.67-.78 9.33-.78 7.55.04 10.08.56 13 2.57zm-23.07 6.93c-.52 1.62-.71 4.79-.71 12.51 0 8.29.19 11.28.91 13.09 1 2.53 3 3.17 9.92 3.17 7.19 0 9.07-.78 10-4.15.45-1.62.65-5.44.65-12.44 0-8.29-.19-10.89-.91-12.7-1-2.46-3.17-3.18-10-3.18-7.03.03-8.83.65-9.86 3.7z"/><path d="m1084.48 939.74a9.37 9.37 0 0 1 3.63 5.83c.52 2.66.58 4.28.58 13.61 0 12.57-.19 14.19-1.88 17a9.81 9.81 0 0 1 -6 4.21c-1.82.58-4.54.78-9.33.78-7.52 0-10.11-.52-13-2.53a9.37 9.37 0 0 1 -3.63-5.83c-.52-2.72-.58-4.34-.58-13.93 0-12.12.19-13.87 1.88-16.72a9.81 9.81 0 0 1 6-4.21c1.75-.52 4.67-.78 9.33-.78 7.52.04 10.08.56 13 2.57zm-23.07 6.93c-.52 1.62-.71 4.79-.71 12.51 0 8.29.19 11.28.91 13.09 1 2.53 3 3.17 9.92 3.17 7.19 0 9.07-.78 10-4.15.45-1.62.65-5.44.65-12.44 0-8.29-.19-10.89-.91-12.7-1-2.46-3.17-3.18-10-3.18-7.08.03-8.83.65-9.86 3.7z"/><path d="m1137.68 962.29v5.57h-26.25v-5.57z"/><path d="m1193.21 980.82h-31.95v-8.62c0-4.54.78-7.06 2.66-8.81 2.14-1.94 3.56-2.4 12-3.63 10.43-1.49 10.89-1.88 10.89-9.27 0-6.42-1.43-7.65-8.88-7.65-9 0-10.11.84-10.11 7.45v2.33h-6.48c.13-6.93.32-8.49 1.62-10.69 1.94-3.37 6.16-4.73 14.91-4.73 12.12 0 15.42 3 15.42 13.8 0 5.64-1 8.68-3.37 10.63-1.94 1.55-4.73 2.4-11.34 3.3-6.29.91-7.19 1.1-8.55 1.94-1.62.91-2.14 2.59-2.14 7.13v1.3h25.34z"/><path d="m1231.05 939.74a9.37 9.37 0 0 1 3.63 5.83c.52 2.66.58 4.28.58 13.61 0 12.57-.19 14.19-1.88 17a9.81 9.81 0 0 1 -6 4.21c-1.82.58-4.54.78-9.33.78-7.52 0-10.11-.52-13-2.53a9.37 9.37 0 0 1 -3.63-5.83c-.52-2.72-.58-4.34-.58-13.93 0-12.12.19-13.87 1.88-16.72a9.81 9.81 0 0 1 6-4.21c1.75-.52 4.67-.78 9.33-.78 7.56.04 10.09.56 13 2.57zm-23.05 6.93c-.52 1.62-.71 4.79-.71 12.51 0 8.29.19 11.28.91 13.09 1 2.53 3 3.17 9.92 3.17 7.19 0 9.07-.78 10-4.15.45-1.62.65-5.44.65-12.44 0-8.29-.19-10.89-.91-12.7-1-2.46-3.17-3.18-10-3.18-7.09.03-8.86.65-9.86 3.7z"/><path d="m1249.84 957.43h-6.16v-6.87h6.16zm0 23.39h-6.16v-6.82h6.16z"/><path d="m1286.58 939.74a9.37 9.37 0 0 1 3.63 5.83c.52 2.66.58 4.28.58 13.61 0 12.57-.19 14.19-1.88 17a9.81 9.81 0 0 1 -6 4.21c-1.82.58-4.54.78-9.33.78-7.52 0-10.11-.52-13-2.53a9.37 9.37 0 0 1 -3.63-5.83c-.52-2.72-.58-4.34-.58-13.93 0-12.12.19-13.87 1.88-16.72a9.81 9.81 0 0 1 6-4.21c1.75-.52 4.67-.78 9.33-.78 7.56.04 10.09.56 13 2.57zm-23.07 6.93c-.52 1.62-.71 4.79-.71 12.51 0 8.29.19 11.28.91 13.09 1 2.53 3 3.17 9.92 3.17 7.19 0 9.07-.78 10-4.15.45-1.62.65-5.44.65-12.44 0-8.29-.19-10.89-.91-12.7-1-2.46-3.17-3.18-10-3.18-7.07.03-8.82.65-9.86 3.7z"/><path d="m1326.83 939.74a9.37 9.37 0 0 1 3.63 5.83c.52 2.66.58 4.28.58 13.61 0 12.57-.19 14.19-1.88 17a9.81 9.81 0 0 1 -6 4.21c-1.82.58-4.54.78-9.33.78-7.52 0-10.11-.52-13-2.53a9.37 9.37 0 0 1 -3.63-5.83c-.52-2.72-.58-4.34-.58-13.93 0-12.12.19-13.87 1.88-16.72a9.81 9.81 0 0 1 6-4.21c1.75-.52 4.67-.78 9.33-.78 7.55.04 10.08.56 13 2.57zm-23.07 6.93c-.52 1.62-.71 4.79-.71 12.51 0 8.29.19 11.28.91 13.09 1 2.53 3 3.17 9.92 3.17 7.19 0 9.07-.78 10-4.15.45-1.62.65-5.44.65-12.44 0-8.29-.19-10.89-.91-12.7-1-2.46-3.17-3.18-10-3.18-7.08.03-8.83.65-9.87 3.7z"/></g></g></svg>