<svg viewBox="0 0 985.46 495.49" xmlns="http://www.w3.org/2000/svg"><g fill="#24428f" stroke="#24428f" stroke-miterlimit="10" stroke-width="6" transform="translate(-228 -323)"><path d="m570.26 326.65c-52.4 3.8-117.15 16.23-159.8 30.69-9.1 3.08-18.07 6-20 6.49s-25.5 1.26-52.5 1.69c-52.7.85-56.51 1.24-61.24 6.31-2.88 3.09-6.19 10.7-6.21 14.3 0 5.29 4.44 12.7 14.33 23.7 5.3 5.9 9.62 11 9.62 11.35s-3.67 4.55-8.09 9.25c-22.69 24.13-37.52 48.7-47.45 78.6-7.87 23.7-8 24.6-7.92 72.6 0 52.6 1.75 71.2 9 97.5 6.68 24.4 14.64 38 28.21 48.21 7.4 5.57 8 6.29 14.56 18.79 10.82 20.5 21.54 33.44 37.54 45.31a121 121 0 0 0 67.2 23.86c16.1.76 27.39-.76 42.1-5.66 22.1-7.37 36.27-16.32 52.38-33.1 10.29-10.72 16.21-19.2 23.19-33.2l4.83-9.7h380.5l5.1 10.2c7.7 15.4 15.32 26.29 25.4 36.3a111.43 111.43 0 0 0 31 22.25c46.7 23.35 101.63 15 139.3-21.19a123 123 0 0 0 26.23-35.66l5.87-11.7 18.3-.4c15.7-.34 19.14-.71 24.2-2.57 21.9-8.07 41-28.53 43.6-46.83.55-3.83 1-29.25 1-57.15v-50.25l-7-13.8a176.35 176.35 0 0 0 -45.78-57.26c-27.68-23.16-59.4-39.14-95.7-48.23-16-4-27.9-6-51.5-8.59l-16.53-1.82-22-14.54c-28.6-18.9-41.77-26.68-65.5-38.68-71.37-36.08-144.1-57-228-65.65-18-1.85-89.3-2.78-108.2-1.41zm99.74 41.94c70.2 5.64 144.83 26.24 210 58a569.52 569.52 0 0 1 83.5 49.88c7.2 5.13 13.37 8.74 16.5 9.65 2.75.8 14 2.38 25 3.51 24 2.48 34.32 4.15 49 8 36.8 9.54 69.64 28.74 92.68 54.18 9.66 10.66 13.79 16.4 19.69 27.3l5.14 9.5v87.8l-7.8 7.58c-9.21 9-11.9 10-25.4 9.52l-9.3-.3-.57-11.5c-.63-12.7-2.41-20.51-7.41-32.6-11.47-27.7-33.26-51.61-58.82-64.53-36.3-18.36-76.63-18.06-112.8.84-35 18.27-57.14 50.69-64.24 94l-2.26 13.8-183.55.25-183.55.25-.59-10.2c-1.24-21.4-9.77-43.53-24.16-62.6-18.92-25.09-43.25-40.68-74.75-47.9-11.32-2.59-36.5-2.35-48.4.48-25.9 6.14-45.33 17-62.45 34.82-9.24 9.64-15.83 19.3-23.45 34.4-5.8 11.5-5.8 11.5-6.55 8-2.55-12-5.37-63.6-4.62-84.5.89-24.6 5.73-44.4 16.18-66.2 9.93-20.7 20.25-33.89 40-51.09 13.8-12 18.17-17.05 19.09-21.91 1-5.1-.08-13.06-2-15.2-1.34-1.5-1.42-2.07-.39-2.7.71-.44 11.9-1.11 24.8-1.49 26.19-.77 21.6.18 59-12.23 42.36-14.06 81.7-21.72 139.5-27.15 17.14-1.61 81-1.35 103 .41zm-262 244.69a82.47 82.47 0 0 1 41.66 21.72c20 19.62 28.76 47.72 23.25 74.42a83.36 83.36 0 0 1 -35.91 52.21c-35.1 22.91-79.34 15.39-107.63-18.3-12.24-14.58-15.86-26.1-15.82-50.4 0-27.3 4.68-39 22.45-56.8 13.46-13.46 30.8-22.14 48.7-24.37 7.17-.9 11.9-.59 23.3 1.52zm610.5-.58c18.4 2.87 34.13 11 46.53 24 10.43 11 15.74 20.1 20.11 34.6 2.27 7.51 2.66 10.7 2.7 21.8 0 14.7-1.29 21.12-6.94 33.4a85.51 85.51 0 0 1 -42 41.62c-18.4 8.15-43.68 8.52-61.9.91-19.5-8.15-40.55-29.26-46.39-46.52-4.79-14.14-4.9-42.9-.22-57.9 5-15.95 22.92-35.38 41.12-44.52a91.83 91.83 0 0 1 27-8.41c6.87-.9 8.3-.83 20 1z"/><path d="m884 533h-214.24v-123l20.52.53c5 .13 124.72 6.47 205.7 89.22 11.02 12.25 10.02 33.25-11.98 33.25zm-174.24-40h120c-44.94-33.34-93.34-38.83-120-43z"/></g></svg>