<svg viewBox="0 0 475.97 464.83" xmlns="http://www.w3.org/2000/svg"><g fill="none" stroke="#274490" stroke-miterlimit="10" stroke-width="18"><path d="m439.47 138.43 25.53-94.38a20 20 0 0 1 30.71-11.22c35.67 24.57 89.29 90.67 110.09 128.99a20 20 0 0 1 -14.15 29.26l-101.91 17.73" transform="translate(-141.27 -20.27)"/><path d="m321.66 357.27-28.11 104.05a20 20 0 0 1 -30.71 11.22c-35.71-24.57-89.32-90.67-110.12-129a20 20 0 0 1 14.14-29.26l98.77-17.18" transform="translate(-141.27 -20.27)"/><ellipse cx="376.59" cy="246.42" rx="127" ry="100" transform="matrix(.69063001 -.72320827 .72320827 .69063001 -202.99 328.28)"/></g></svg>