<svg viewBox="0 0 638.58 467.44" xmlns="http://www.w3.org/2000/svg"><path d="m1135.46 435.64c-18.77 19.88-30.55 64-33.22 124.51-.92 20.87-.86 91.95.08 93.72a59.47 59.47 0 0 0 4.06 5.54c7.45 9.3 11.34 19.15 15 38.17 1.42 7.26 1.43 7.86 1.78 78.92l.35 71.61 1.77 2.67c5.63 8.51 18.61 6.74 22-3 1-2.81 1.08-397.58.12-404.26-.63-4.33-2.3-8.47-4-9.88a7.76 7.76 0 0 0 -2.77-1.12c-1.64-.33-2.3.06-5.18 3.12z" fill="#24428f" transform="translate(-509.5 -407.23)"/><path d="m513 447.62a7.13 7.13 0 0 0 -2.68 3.24c-1.17 3.36-1 81.18.18 87.42 3.23 16.92 16.41 32 32 36.68l2.67.8v141.94c0 136.79 0 133 1.18 135.49a11.71 11.71 0 0 0 11.42 7.32 12.38 12.38 0 0 0 10.09-5.22l1.8-2.61.34-133.78.32-142.77 5.09-2.06a48.22 48.22 0 0 0 29.31-35.23c.73-3.85.91-12.72.91-46.13v-41.34l-2.48-2.48c-2.79-2.79-5.6-3.27-8.91-1.55-4 2.08-3.81.08-4 45.32-.18 40.27-.22 41.29-1.49 43.74a16.43 16.43 0 0 1 -3.69 4.42c-2 1.58-3.09 2-6.39 2.18-5.73.38-9.52-1.65-11.91-6.38-1.13-2.23-1.19-4.39-1.19-42.31 0-25.26-.24-40.82-.65-42.31-1.93-6.93-10.92-7.66-14.3-1.15-.81 1.57-1 7.86-1 42.4 0 40 0 40.6-1.34 43.33a12.25 12.25 0 0 1 -3.94 4.49c-2.21 1.46-3.31 1.72-7.19 1.72-4.2 0-4.78-.16-7-2a18.93 18.93 0 0 1 -3.72-4.14c-1.23-2.09-1.28-3.63-1.59-43.84-.25-32.19-.5-42-1.13-43.07-1.85-3.21-7.21-4.29-10.71-2.16z" fill="#24428f" transform="translate(-509.5 -407.23)"/><g stroke="#24428f" stroke-miterlimit="10"><path d="m830.89 437.18c-51.47 4.71-97.47 26-133.35 61.7-34.54 34.37-54.87 76.23-60.74 125-1.27 10.56-1.45 32.89-.34 43.26 5.33 50 26.92 94.63 62.48 129.15 34.72 33.7 76.22 53.35 125.91 59.6 10.28 1.29 40.15 1.11 50.9-.32 58.91-7.82 110.63-38 145.44-84.79 21.24-28.57 34.27-60.82 39.51-97.79 1.56-11 1.54-41.36 0-52.62-6.56-46.76-26.65-87.69-59-120.31a206.34 206.34 0 0 0 -56.2-40.68 212.71 212.71 0 0 0 -70.3-21.32c-9.48-1.21-35.14-1.74-44.22-.91zm35 21c79.47 7.25 145.73 61 167.7 136 5.29 18.06 7.27 32.38 7.27 52.62 0 15.46-.66 22.79-3.23 36.07-14.12 73-71.4 131.46-145.33 148.41a203 203 0 0 1 -80.8 1.27 191.24 191.24 0 0 1 -101.5-55.05c-29.52-30.32-47.34-67.95-52.26-110.39-1.29-11.13-.92-36.55.69-46.7 6.63-41.93 24-76.4 53.15-105.68 11.36-11.4 17.19-16.3 28.65-24a195.43 195.43 0 0 1 90-32.4 277.92 277.92 0 0 1 35.63-.08z" fill="#24428f" stroke-width="8" transform="translate(-509.5 -407.23)"/><path d="m118.87 10.61 446.23 446.22" fill="none" stroke-width="30"/><path d="m118.87 456.83 446.23-446.22" fill="none" stroke-width="30"/><circle cx="338.35" cy="238.6" fill="none" r="147.74" stroke-width="18"/></g></svg>