<svg id="Слой_1" data-name="Слой 1" xmlns="http://www.w3.org/2000/svg" viewBox="0 0 254.16 74.94"><defs><style>.cls-1,.cls-2,.cls-4,.cls-6{fill:none;}.cls-1,.cls-7,.cls-8{stroke:#234d97;}.cls-1,.cls-2,.cls-4,.cls-6,.cls-7,.cls-8{stroke-miterlimit:10;stroke-width:1.04px;}.cls-2{stroke:#b2ada8;}.cls-3{fill:#5a9fd8;}.cls-4{stroke:#60aae2;}.cls-5{fill:#aac8eb;}.cls-6{stroke:#aac8ec;}.cls-7,.cls-9{fill:#234d97;}.cls-8{fill:#2857ab;}</style></defs><title>pots</title><path class="cls-1" d="M18.23,1.57l-6.57,8.84A1.67,1.67,0,0,0,12,12.72l7.64,6a1.68,1.68,0,0,0,1,.36H27a1.69,1.69,0,0,0,1.3-.62l4.36-5.38a1.67,1.67,0,0,0-.25-2.35L20.62,1.27A1.67,1.67,0,0,0,18.23,1.57Z" transform="translate(-3.1 -0.38)"/><path class="cls-1" d="M53,5.27,42.23,8.58A1.86,1.86,0,0,0,41,11l1.72,4.89A1.86,1.86,0,0,0,43.93,17L48,18.34a1.83,1.83,0,0,0,1.11,0l7.14-2.15a1.88,1.88,0,0,0,1.25-2.32L55.32,6.52A1.86,1.86,0,0,0,53,5.27Z" transform="translate(-3.1 -0.38)"/><line class="cls-2" x1="24.79" y1="22.09" x2="26.37" y2="25.51"/><line class="cls-2" x1="39.52" y1="18.73" x2="36.1" y2="22.09"/><line class="cls-2" x1="41.22" y1="19.84" x2="38.2" y2="24.29"/><line class="cls-2" x1="42.76" y1="20.84" x2="40.83" y2="25.51"/><line class="cls-2" x1="18.74" y1="22.09" x2="18.74" y2="26.49"/><line class="cls-2" x1="20.65" y1="22.1" x2="20.65" y2="26.49"/><line class="cls-2" x1="22.88" y1="22.09" x2="22.88" y2="25.51"/><polyline class="cls-1" points="16.67 12.52 19.06 7.29 21.4 12.52"/><line class="cls-1" x1="17.48" y1="10.75" x2="20.61" y2="10.75"/><path class="cls-1" d="M48.27,12s0-.2,2.27-.2c2,0,1,3.16,1,3.16H48.27V10h3.28" transform="translate(-3.1 -0.38)"/><path class="cls-3" d="M18.94,64.42h29L47,70.83s-1.72,3.54-3,3.76-21.35.21-21.35.21-3.45-1.47-3.58-3.28S18.94,64.42,18.94,64.42Z" transform="translate(-3.1 -0.38)"/><path class="cls-3" d="M110.47,45.35h34.24l-4.88,26.44s-2.24,2.58-3.55,2.8-21.36.21-21.36.21-3-2.65-3.13-4.47S110.47,45.35,110.47,45.35Z" transform="translate(-3.1 -0.38)"/><path class="cls-3" d="M209.77,45.35H244l-4.88,26.44s-2.24,2.58-3.55,2.8-21.36.21-21.36.21-3-2.65-3.13-4.47S209.77,45.35,209.77,45.35Z" transform="translate(-3.1 -0.38)"/><path class="cls-4" d="M20.83,67.44v3a2,2,0,0,0,2,2H43.18a2,2,0,0,0,2-2v-4.2" transform="translate(-3.1 -0.38)"/><path class="cls-5" d="M22.63,64.81s0,2.17,0,3a1.09,1.09,0,0,0,2.17,0v-3Z" transform="translate(-3.1 -0.38)"/><line class="cls-6" x1="44.82" y1="64.04" x2="15.85" y2="64.04"/><path class="cls-4" d="M143.09,45.35l-4.72,20.91v4.2a2,2,0,0,1-2,2H116a2,2,0,0,1-2-2v-8" transform="translate(-3.1 -0.38)"/><path class="cls-5" d="M115.85,45.35s0,22.62,0,23.48a1.09,1.09,0,0,0,2.17,0V45.35Z" transform="translate(-3.1 -0.38)"/><line class="cls-6" x1="141.61" y1="44.97" x2="107.37" y2="44.97"/><path class="cls-4" d="M242.39,45.35l-4.72,20.91v4.2a2,2,0,0,1-2,2H215.33a2,2,0,0,1-2-2v-8" transform="translate(-3.1 -0.38)"/><path class="cls-5" d="M215.15,45.35s0,22.62,0,23.48a1.09,1.09,0,0,0,2.17,0V45.35Z" transform="translate(-3.1 -0.38)"/><line class="cls-6" x1="240.92" y1="44.97" x2="206.68" y2="44.97"/><path class="cls-1" d="M55.52,27.49H32.59s-25,2.27-26.34,5.43C5,35.73,5.83,48,3.77,52.67A1.88,1.88,0,0,0,4.54,55l12.4,7.45a4.14,4.14,0,0,1,2,3.59l-.05,4.33a4.14,4.14,0,0,0,1.51,3.24l.28.23a4.13,4.13,0,0,0,2.63.94H42.67A4.15,4.15,0,0,0,46.12,73l.24-.36A4.13,4.13,0,0,0,47,70.83c.66-5.15,4.09-30,10-40.91A1.66,1.66,0,0,0,55.52,27.49Z" transform="translate(-3.1 -0.38)"/><path class="cls-7" d="M226.47,49.1s-5.59-25.78-7.76-25.19S226.47,49.1,226.47,49.1Z" transform="translate(-3.1 -0.38)"/><path class="cls-8" d="M229.08,65a2.75,2.75,0,0,0,4.11-1.78c1.07-5.05,1.62-16.26-6.39-14.07C219.19,51.17,224,61.93,229.08,65Z" transform="translate(-3.1 -0.38)"/><path class="cls-1" d="M15.74,34.89a2.71,2.71,0,0,1,1.41,2.38l.62,18.84c0,1.31.42,2-2,2-2,0-4.77-2.6-5-5.81-.4-5.33.08-15,.08-15S11.88,33,15.74,34.89Z" transform="translate(-3.1 -0.38)"/><path class="cls-1" d="M148.58,27.49H125.65s-25,2.27-26.34,5.43c-1.23,2.81-.42,15-2.48,19.75A1.88,1.88,0,0,0,97.6,55L110,62.47a4.14,4.14,0,0,1,2,3.59L112,70.39a4.14,4.14,0,0,0,1.51,3.24l.28.23a4.13,4.13,0,0,0,2.63.94h19.35A4.15,4.15,0,0,0,139.18,73l.24-.36a4.26,4.26,0,0,0,.65-1.76c.66-5.15,4.09-30,10-40.91A1.66,1.66,0,0,0,148.58,27.49Z" transform="translate(-3.1 -0.38)"/><path class="cls-1" d="M108.8,34.89a2.71,2.71,0,0,1,1.41,2.38l.62,18.84c0,1.31.42,2-2,2-2,0-4.78-2.6-5-5.81-.4-5.33.08-15,.08-15S104.94,33,108.8,34.89Z" transform="translate(-3.1 -0.38)"/><path class="cls-1" d="M248,27.49H225.08s-25,2.27-26.34,5.43c-1.23,2.81-.42,15-2.48,19.75A1.88,1.88,0,0,0,197,55l12.4,7.45a4.16,4.16,0,0,1,2,3.59l-.05,4.33a4.11,4.11,0,0,0,1.51,3.24l.28.23a4.13,4.13,0,0,0,2.63.94h19.35A4.15,4.15,0,0,0,238.61,73l.23-.36a4.14,4.14,0,0,0,.66-1.76c.66-5.15,4.09-30,10-40.91A1.66,1.66,0,0,0,248,27.49Z" transform="translate(-3.1 -0.38)"/><path class="cls-1" d="M208.23,34.89a2.73,2.73,0,0,1,1.41,2.38l.62,18.84c0,1.31.42,2-2,2-2,0-4.78-2.6-5-5.81-.4-5.33.08-15,.08-15S204.36,33,208.23,34.89Z" transform="translate(-3.1 -0.38)"/><path class="cls-1" d="M231.42,14.48c9.55,0,9.6,7.39,0,7.39h-9" transform="translate(-3.1 -0.38)"/><polygon class="cls-9" points="219.72 21.5 223.28 20.5 223.28 22.49 219.72 21.5"/><path class="cls-9" d="M225.85,21.57v.61l-1.1-.31,1.1-.3m1-1.37-6,1.67,6,1.68V20.2Z" transform="translate(-3.1 -0.38)"/><path class="cls-1" d="M216.35,21.87c-9.55,0-9.6-7.39,0-7.39h9" transform="translate(-3.1 -0.38)"/><polygon class="cls-9" points="218.3 13.11 221.86 14.1 218.3 15.09 218.3 13.11"/><path class="cls-9" d="M221.92,14.17l1.1.31-1.1.3v-.61m-1-1.37v3.35l6-1.67-6-1.68Z" transform="translate(-3.1 -0.38)"/><path class="cls-9" d="M55.3,75.07V68.61L53.86,69l-.37-1.48,2.36-.71h1.24v8.3Z" transform="translate(-3.1 -0.38)"/><path class="cls-9" d="M58.9,75.07V73.19h1.91v1.88Z" transform="translate(-3.1 -0.38)"/><path class="cls-9" d="M128.42,40.62V34.15L127,34.5,126.61,33l2.36-.71h1.24v8.31Z" transform="translate(-3.1 -0.38)"/><path class="cls-9" d="M133.2,34.3h5.08v6.32h-1.79V35.84h-1.6a17.77,17.77,0,0,1-.1,2.1,8.9,8.9,0,0,1-.25,1.41,2.1,2.1,0,0,1-.46.83,1.53,1.53,0,0,1-.64.4,2.92,2.92,0,0,1-.85.11,3.84,3.84,0,0,1-.91-.11l.12-1.45a1.82,1.82,0,0,0,.38,0,.69.69,0,0,0,.45-.14,1.34,1.34,0,0,0,.31-.61,6.67,6.67,0,0,0,.21-1.47C133.18,36.29,133.2,35.4,133.2,34.3Z" transform="translate(-3.1 -0.38)"/><path class="cls-9" d="M146.63,75.07V73.64l2.74-2.25a7.36,7.36,0,0,0,1.12-1.08,1.49,1.49,0,0,0,.31-.9,1,1,0,0,0-.31-.79,1.12,1.12,0,0,0-.8-.28,1.42,1.42,0,0,0-.83.25,4.48,4.48,0,0,0-.86.85l-1.27-1a4.93,4.93,0,0,1,1.34-1.3,3.39,3.39,0,0,1,1.74-.41,3,3,0,0,1,2.06.7,2.39,2.39,0,0,1,.78,1.87,2.79,2.79,0,0,1-.26,1.21,3.53,3.53,0,0,1-.68.94,12.8,12.8,0,0,1-1.23,1l-1.34,1h3.59v1.56Z" transform="translate(-3.1 -0.38)"/><path class="cls-9" d="M154.12,75.07V73.19H156v1.88Z" transform="translate(-3.1 -0.38)"/><path class="cls-9" d="M251,75.21a4,4,0,0,1-3.21-1.42L249,72.6a2.62,2.62,0,0,0,2,1,1.24,1.24,0,0,0,.84-.28.91.91,0,0,0,.32-.75.87.87,0,0,0-.42-.77,2.21,2.21,0,0,0-1.19-.27h-.75l-.29-1.16,2-2h-3.24V66.83h5.57V68.2l-2.08,2c1.47.25,2.21,1,2.21,2.33a2.56,2.56,0,0,1-.8,1.94A3.06,3.06,0,0,1,251,75.21Z" transform="translate(-3.1 -0.38)"/><path class="cls-9" d="M255.36,75.07V73.19h1.9v1.88Z" transform="translate(-3.1 -0.38)"/></svg>