<svg id="Layer_1" data-name="Layer 1" xmlns="http://www.w3.org/2000/svg" xmlns:xlink="http://www.w3.org/1999/xlink" viewBox="0 0 240.94 58.48"><defs><style>.cls-1{fill:#003770;}.cls-2{fill:#0087cc;}.cls-3{fill:url(#linear-gradient);}</style><linearGradient id="linear-gradient" x1="33.15" y1="48.44" x2="69.81" y2="93.72" gradientUnits="userSpaceOnUse"><stop offset="0.15" stop-color="#0087cc"/><stop offset="1" stop-color="#003770"/></linearGradient></defs><path class="cls-1" d="M219.55,90.43h11.29l2.49-6.3h15.1l2.49,6.3H262.2L246.11,51.8H235.65Zm17.09-14.69,4.24-11.1,4.23,11.1Z" transform="translate(-21.26 -40.63)"/><path class="cls-1" d="M150.38,76.33h0c-.07-.39-.15-1.21-.24-1.56C148.37,68,142.11,63,133.92,63c-9.35,0-16.46,6.82-16.7,15.31a12.38,12.38,0,0,1-8,3.06c-5.49,0-11.1-4.3-11.1-10.2S103.49,61,108.93,61a12.26,12.26,0,0,1,9.13,3.88l4.26-9.51A21,21,0,0,0,109,50.88c-11.71,0-22,8.44-22,20.25s10.49,20.32,21.32,20.32a22.14,22.14,0,0,0,12.2-3.26,16.79,16.79,0,0,0,13.47,6.28c8.13,0,14.43-5,16.21-11.8.1-.36.18-1.15.25-1.55h0v9.31h11V51.8h-11Zm-16.46,8.85c-3.1,0-5.62-2.89-5.62-6.46s2.52-6.46,5.62-6.46,5.63,2.89,5.63,6.46S137,85.18,133.92,85.18Z" transform="translate(-21.26 -40.63)"/><path class="cls-2" d="M214.75,75.33l9-13.39H212.5L208,69l-4.5-7.09H192.27l9,13.39-9,13.8V80.29H177.6V75.74h11.89v-9.2H177.6v-4.6h14.66V51.8H166.44V90.43h36.21l5.35-8,5.36,8h11.23Z" transform="translate(-21.26 -40.63)"/><path class="cls-3" d="M71.7,49.74a29.24,29.24,0,1,0-22,49.35h.78A29.23,29.23,0,0,0,71.7,49.74ZM72,84.5a25.77,25.77,0,0,1-33.48-3.28,25.4,25.4,0,0,1-5.87-10A22.18,22.18,0,0,0,69.88,54.86a24.26,24.26,0,0,0-.16-2.56A26.07,26.07,0,0,1,72,84.5ZM66.69,54.86a18.86,18.86,0,0,1-1.5,7.41,21.94,21.94,0,0,0-.8-4.54A21.38,21.38,0,0,0,51.86,43.87a26,26,0,0,1,13.8,4.82A18.93,18.93,0,0,1,66.69,54.86Zm-5.08,12.9a19,19,0,0,1-13.28,6.08,15.94,15.94,0,0,0,1.46-27.33A18.22,18.22,0,0,1,61.61,67.76ZM37.08,47.56a12.77,12.77,0,1,1,3.81,25h-.27a19,19,0,0,1-9-7.55,25.53,25.53,0,0,1,5.48-17.37ZM31.61,87.8A26.05,26.05,0,0,1,30,53.74,28.86,28.86,0,0,0,65.46,91.18,26.07,26.07,0,0,1,31.61,87.8Z" transform="translate(-21.26 -40.63)"/></svg>