<svg xmlns="http://www.w3.org/2000/svg" viewBox="0 0 310 79"><defs><style>.cls-1{fill:#fff;fill-rule:evenodd;}</style></defs><title>Ресурс 1</title><g id="Слой_2" data-name="Слой 2"><g id="Слой_1-2" data-name="Слой 1"><rect width="310" height="79" rx="12" ry="12"/><path class="cls-1" d="M41.2,19.38a5.35,5.35,0,0,1,2,.32,3.42,3.42,0,0,1,1.23.86,3,3,0,0,1,.62,1.21,6.1,6.1,0,0,1,.16,1.4v4H43.8c0-2-.51-3.48-1.54-4.36a6.51,6.51,0,0,0-4.38-1.33H30.26V33.34H42.57v2.13H30.26v13h8.09a8.07,8.07,0,0,0,4.43-1.17,8.48,8.48,0,0,0,3-4.23l1.29.47-1.38,3.75a6.67,6.67,0,0,1-1.34,2.42,3.62,3.62,0,0,1-2.78.9H24.1V25.53a8.55,8.55,0,0,0-.59-3.44c-.39-.87-1.3-1.3-2.73-1.3h-.47V19.38ZM62,30.26a7.4,7.4,0,0,0-2.63.43,5.06,5.06,0,0,0-1.73,1c0,.2.08.42.15.67a4.88,4.88,0,0,1,.15.79q0,.48,0,1V50.63H51.8V34.53a17.16,17.16,0,0,0-.11-1.93,4.56,4.56,0,0,0-.46-1.52,2.3,2.3,0,0,0-1-1,3.94,3.94,0,0,0-1.71-.32h-.47V28.37h4.68a6.51,6.51,0,0,1,2.54.4,3,3,0,0,1,1.44,1.34,10.15,10.15,0,0,1,1-.78,6.39,6.39,0,0,1,1.42-.71,13.47,13.47,0,0,1,1.92-.52,14.14,14.14,0,0,1,2.55-.2q4.45,0,6.73,2.05t2.27,6.66v14H66.49V36.56c0-2.3-.43-3.92-1.28-4.87A4.15,4.15,0,0,0,62,30.26Zm30.15,1.18A8.94,8.94,0,0,0,91,30.73c-.35-.15-.76-.31-1.25-.47A5.24,5.24,0,0,0,88.13,30a3.52,3.52,0,0,0-2.23.71,5,5,0,0,0-1.46,2,10.55,10.55,0,0,0-.81,3,27.42,27.42,0,0,0-.24,3.77,27.07,27.07,0,0,0,.24,3.76,11.86,11.86,0,0,0,.75,3,4.91,4.91,0,0,0,1.4,2,3.25,3.25,0,0,0,2.11.71,3.48,3.48,0,0,0,1.87-.48,5.75,5.75,0,0,0,1.3-1,6.77,6.77,0,0,0,1.09-1.57V31.45Zm0-5.92a8.54,8.54,0,0,0-.59-3.44c-.39-.87-1.3-1.3-2.72-1.3h-.47V19.38H94a6,6,0,0,1,2.05.31,2.76,2.76,0,0,1,1.33,1,4.36,4.36,0,0,1,.68,1.89,19.81,19.81,0,0,1,.19,2.94v25.1h-4l-1.65-2.13h-.24a5.21,5.21,0,0,1-1.33,1.33,6.14,6.14,0,0,1-1.68.9,7,7,0,0,1-2.44.38,9.71,9.71,0,0,1-4.35-.9,8.87,8.87,0,0,1-3.1-2.47A10.09,10.09,0,0,1,77.62,44a17,17,0,0,1,0-9.09,10.14,10.14,0,0,1,1.89-3.69A9.1,9.1,0,0,1,82.7,28.8a10.34,10.34,0,0,1,4.47-.9,8.85,8.85,0,0,1,2.07.23c.6.16,1.14.32,1.58.48a8.06,8.06,0,0,1,1.32.7V25.53Zm27,14a22,22,0,0,0-.31-3.77,12.06,12.06,0,0,0-.91-3,5.38,5.38,0,0,0-1.57-2,3.68,3.68,0,0,0-4.35,0,5.39,5.39,0,0,0-1.57,2,11.5,11.5,0,0,0-.93,3,22,22,0,0,0-.31,3.77,21.74,21.74,0,0,0,.31,3.76,11.19,11.19,0,0,0,.93,3,5.33,5.33,0,0,0,1.57,2,3.68,3.68,0,0,0,4.35,0,5.32,5.32,0,0,0,1.57-2,11.72,11.72,0,0,0,.91-3,21.75,21.75,0,0,0,.31-3.76Zm-16.34,0a13.07,13.07,0,0,1,.78-4.55,10.89,10.89,0,0,1,2.25-3.69,10.6,10.6,0,0,1,3.57-2.46,13,13,0,0,1,9.52,0,10.66,10.66,0,0,1,3.58,2.46,10.85,10.85,0,0,1,2.24,3.69,13.64,13.64,0,0,1,0,9.09,10.61,10.61,0,0,1-2.24,3.69A10.49,10.49,0,0,1,119,50.2a13,13,0,0,1-9.52,0,10.43,10.43,0,0,1-3.57-2.47A10.64,10.64,0,0,1,103.63,44,13,13,0,0,1,102.85,39.5Z"/><path class="cls-1" d="M148.08,19.38a5.35,5.35,0,0,1,2,.32,3.42,3.42,0,0,1,1.24.86,3,3,0,0,1,.62,1.21,6.1,6.1,0,0,1,.16,1.4v4h-1.42c0-2-.51-3.48-1.54-4.36a6.51,6.51,0,0,0-4.38-1.33h-7.62V33.34h12.31v2.13H137.14v13h8.09a8.07,8.07,0,0,0,4.43-1.17,8.47,8.47,0,0,0,3-4.23l1.29.47-1.38,3.75a6.68,6.68,0,0,1-1.34,2.42,3.62,3.62,0,0,1-2.78.9H131V25.53a8.56,8.56,0,0,0-.59-3.44c-.39-.87-1.3-1.3-2.73-1.3h-.47V19.38ZM164,40.73l-4.54-7.62a9.67,9.67,0,0,0-2.15-2.66A5.13,5.13,0,0,0,155,29.31v-.94h4.5a6,6,0,0,1,3.68,1,9.33,9.33,0,0,1,2.38,2.77L167.88,36l6.2-7.62h3.17l-8,9.85,4.59,7.66A9.37,9.37,0,0,0,176,48.53a4.89,4.89,0,0,0,2.24,1.14v1h-4.5a5.91,5.91,0,0,1-3.66-1,9.36,9.36,0,0,1-2.39-2.76L165.37,43l-6.2,7.62H156l8-9.89ZM193.55,27.9a9.86,9.86,0,0,1,4.34.9A9.11,9.11,0,0,1,201,31.26a10.73,10.73,0,0,1,1.87,3.69,16.15,16.15,0,0,1,.62,4.55,16,16,0,0,1-.62,4.54A10.34,10.34,0,0,1,201,47.73a9,9,0,0,1-3.2,2.47,10.4,10.4,0,0,1-4.48.9,9.57,9.57,0,0,1-2.08-.2,8.86,8.86,0,0,1-1.56-.51,5.23,5.23,0,0,1-1.33-.71v9.95h-6.16V34.53a17.07,17.07,0,0,0-.11-1.93,4.55,4.55,0,0,0-.46-1.52,2.31,2.31,0,0,0-1-1,3.94,3.94,0,0,0-1.7-.32h-.47V28.37h4.68a6.24,6.24,0,0,1,2.54.42,3,3,0,0,1,1.44,1.57,12.35,12.35,0,0,1,1-.81,9.24,9.24,0,0,1,1.37-.81,8.56,8.56,0,0,1,1.8-.62,10.7,10.7,0,0,1,2.25-.23Zm-1,2.12a5.5,5.5,0,0,0-2.89.66A9.2,9.2,0,0,0,188,32a5.14,5.14,0,0,0,.15.66,5.62,5.62,0,0,1,.15.71c0,.25,0,.56,0,.9V47.55a5.84,5.84,0,0,0,1.14.71,6.18,6.18,0,0,0,1.25.5,5.68,5.68,0,0,0,1.64.21,3.54,3.54,0,0,0,2.23-.71,5,5,0,0,0,1.46-2,11.25,11.25,0,0,0,.8-3,29.28,29.28,0,0,0,.23-3.76,29.66,29.66,0,0,0-.23-3.77,12.13,12.13,0,0,0-.78-3,5.22,5.22,0,0,0-1.4-2,3.22,3.22,0,0,0-2.09-.71Zm26,19a6.54,6.54,0,0,0,4-1.14A13.31,13.31,0,0,0,225.36,45l1.48,1.09a17.47,17.47,0,0,1-1.25,1.68,9.26,9.26,0,0,1-4.31,2.82,11.13,11.13,0,0,1-3.4.47,11.33,11.33,0,0,1-4.52-.87,9.84,9.84,0,0,1-3.44-2.44,10.47,10.47,0,0,1-2.17-3.66A13.78,13.78,0,0,1,207,39.5a14.4,14.4,0,0,1,.81-5,10,10,0,0,1,2.2-3.62,9.51,9.51,0,0,1,3.29-2.2,11.14,11.14,0,0,1,4.12-.75,12.12,12.12,0,0,1,4.12.69,10.07,10.07,0,0,1,3.29,1.91,8.88,8.88,0,0,1,2.2,3,9.22,9.22,0,0,1,.81,3.89c0,.35,0,.7,0,1.06s0,.7-.07,1-.07.66-.09.94H213.39c0,3.13.48,5.36,1.45,6.66a4.44,4.44,0,0,0,3.76,2Zm2.85-10.75a21.38,21.38,0,0,0-.31-3.95,8.71,8.71,0,0,0-.83-2.51,3.3,3.3,0,0,0-1.25-1.34,3.36,3.36,0,0,0-1.64-.4,3.2,3.2,0,0,0-1.54.4,3.35,3.35,0,0,0-1.27,1.34,8.64,8.64,0,0,0-.87,2.51,19.08,19.08,0,0,0-.34,3.95ZM244,27.9a5.49,5.49,0,0,1,3.36.94,2.79,2.79,0,0,1,.71.66c.19.26.35.5.5.71a4.33,4.33,0,0,1,.31.55L249,31l-2.42,1.85a4.81,4.81,0,0,0-.85-.9,4.32,4.32,0,0,0-1-.67,3.19,3.19,0,0,0-1.4-.28,6.77,6.77,0,0,0-2.55.42,4.91,4.91,0,0,0-1.66,1c0,.23.05.46.09.71s.05.47.07.74,0,.55,0,.83V50.63h-6.16V34.53A17,17,0,0,0,233,32.6a4.57,4.57,0,0,0-.46-1.52,2.31,2.31,0,0,0-1-1,3.94,3.94,0,0,0-1.71-.32h-.47V28.37h4.68a6.51,6.51,0,0,1,2.54.4,3,3,0,0,1,1.44,1.34,11.51,11.51,0,0,1,2.35-1.49A8.23,8.23,0,0,1,244,27.9Zm15.1.47h5.21v2.13h-5.21v14a6.85,6.85,0,0,0,.64,3.58,2.09,2.09,0,0,0,1.83.93,5.25,5.25,0,0,0,1.45-.2,6,6,0,0,0,2.29-1.09L266,49a8.37,8.37,0,0,1-1.46,1,12.3,12.3,0,0,1-1.92.71,10.58,10.58,0,0,1-2.78.32,6.94,6.94,0,0,1-5-1.76A6.8,6.8,0,0,1,253,44.18V30.51h-2.85V28.37H253V24.1l2.36-2.83h3.79Z"/><path class="cls-1" d="M276.85,19.75a2.43,2.43,0,0,1,1.48.42,1.24,1.24,0,0,1,.31.29l.22.31A1.82,1.82,0,0,1,279,21l0,.09-1.07.82a2.11,2.11,0,0,0-.37-.4,1.93,1.93,0,0,0-.45-.3,1.42,1.42,0,0,0-.62-.12,3,3,0,0,0-1.13.18,2.17,2.17,0,0,0-.74.46c0,.1,0,.2,0,.32s0,.21,0,.33,0,.24,0,.37v7H272V22.68a7.64,7.64,0,0,0,0-.85,2,2,0,0,0-.2-.67,1,1,0,0,0-.44-.43,1.75,1.75,0,0,0-.75-.14h-.21V20h2.07a2.88,2.88,0,0,1,1.12.18,1.34,1.34,0,0,1,.63.59,5.13,5.13,0,0,1,1-.66,3.64,3.64,0,0,1,1.6-.32Zm3.73,2.93v3.47a3.91,3.91,0,0,0,1,2.94,4.07,4.07,0,0,0,2.92.91,3.38,3.38,0,0,0,1.11-.17,3.34,3.34,0,0,0,.81-.4,3.65,3.65,0,0,0,.7-.59h.1l.74.94h1.78V20H287v7.75a3,3,0,0,1-.48.69,2.54,2.54,0,0,1-.58.46,1.54,1.54,0,0,1-.83.21,1.51,1.51,0,0,1-1.31-.64,4,4,0,0,1-.46-2.25v-3.5a8.76,8.76,0,0,0-.08-1.3,2,2,0,0,0-.31-.84,1.22,1.22,0,0,0-.58-.45,2.69,2.69,0,0,0-.92-.14H278.9v.63h.21c.63,0,1,.19,1.21.58A3.76,3.76,0,0,1,280.57,22.68Z"/></g></g></svg>