<svg xmlns="http://www.w3.org/2000/svg" viewBox="0 0 223.35 154.53"><defs><style>.cls-1,.cls-2{fill:#fff;}.cls-1{fill-rule:evenodd;}</style></defs><title>Ресурс 1</title><g id="Слой_2" data-name="Слой 2"><g id="Слой_1-2" data-name="Слой 1"><path class="cls-1" d="M155.56,88.48H137l.26-1.24a90,90,0,0,0,2.65-20.11l0-.84h21.12a51.34,51.34,0,0,1-5.26,21.64l-.23.55Zm-2.27,4A51.83,51.83,0,0,1,124,114.75l-3.54,1,2.75-2.52a40.17,40.17,0,0,0,7.94-10.32A59.52,59.52,0,0,0,136,91.78l.19-.24h17.88l-.79.92Zm-43.21,23.81,1.16-.06c6.54-1,12.72-6,17.48-14.52a57.44,57.44,0,0,0,4.2-9.4l.38-.75H110.08v24.73Zm18.46-50a6.43,6.43,0,0,0,.37-2.29h8.25l0-1.08a88.67,88.67,0,0,0-2.85-20.68l-.16-.44h-24V48l-2.3-1.55V41.8H84.07l-.16.6a85.52,85.52,0,0,0-2.85,20.44L81,64H95.91v2.29H81l0,.88a85.94,85.94,0,0,0,2.85,20.49l.16.82h23.71V81.76l2.3-1.54v8.26h24l.16-.78a88.24,88.24,0,0,0,2.85-20.63l0-.78Zm-18.46-53,1.15.15c6.55,1,12.63,6.06,17.38,14.61a58.72,58.72,0,0,1,4.26,9.61l.43,1.12H110.08V13.25ZM124,15l-3.53-1,2.74,2.47a39.89,39.89,0,0,1,7.94,10.31A62.2,62.2,0,0,1,136,38.14l.18.6h17.89l-.79-1.3A52.12,52.12,0,0,0,124,15Zm31.8,27.41A50.93,50.93,0,0,1,161.05,64H139.93l0-1.13a89.57,89.57,0,0,0-2.65-20l-.26-1h18.56l.23.56Zm-48-3.62H84.9l.37-1.12A60.27,60.27,0,0,1,89.48,28c4.76-8.55,10.77-13.61,17.31-14.61l1-.16V38.74Zm0,77.53-1-.15c-6.54-1-12.53-6.06-17.29-14.61a55.44,55.44,0,0,1-4.22-9.22l-.38-.75h22.88v24.73Zm-13.57-1.7-.4-.12c1,1.22,2,2.45,3,3.7a55.33,55.33,0,0,0,12.24,1.37A54.76,54.76,0,0,0,147.82,26,54.78,54.78,0,0,0,60.19,89.45q2.09,1,4.13,2.09H82l.19.23A60.85,60.85,0,0,0,87.06,103,39.42,39.42,0,0,0,95,113.25l2.74,2.42-3.53-1.1ZM62.41,87.81a51.56,51.56,0,0,1-5.25-20.62l0-.9H78.27l0,.74a90.78,90.78,0,0,0,2.65,20.25l.26,1.2H62.64l-.23-.67Zm-5.25-25a51.32,51.32,0,0,1,5.25-20.57l.23-.45H81.2l-.26.86A91.23,91.23,0,0,0,78.29,63l0,1H57.13l0-1.18ZM64.9,37.45l-.78,1.29H82l.19-.6a62.4,62.4,0,0,1,4.87-11.48A39.56,39.56,0,0,1,95,16.37l2.74-2.47L94.21,15A52.08,52.08,0,0,0,64.9,37.45Z"/><path class="cls-2" d="M109.1,10a54.76,54.76,0,0,1,38.72,93.48,54.4,54.4,0,0,1-38.72,16,55.33,55.33,0,0,1-12.24-1.37c-1-1.25-2-2.48-3-3.7l.4.12,3.53,1.1L95,113.25A39.42,39.42,0,0,1,87.06,103a60.85,60.85,0,0,1-4.87-11.27L82,91.54H64.32q-2-1.07-4.13-2.09A54.79,54.79,0,0,1,109.1,10m1,28.74H133.3l-.43-1.12A58.72,58.72,0,0,0,128.61,28c-4.75-8.55-10.83-13.6-17.38-14.61l-1.15-.15V38.74m-25.18,0h22.88V13.25l-1,.16c-6.54,1-12.55,6.06-17.31,14.61a60.27,60.27,0,0,0-4.21,9.6l-.37,1.12m51.29,0h17.89l-.79-1.3A52.12,52.12,0,0,0,124,15l-3.53-1,2.74,2.47a39.89,39.89,0,0,1,7.94,10.31A62.2,62.2,0,0,1,136,38.14l.18.6M97.74,13.9,94.21,15A52.08,52.08,0,0,0,64.9,37.45l-.78,1.29H82l.19-.6a62.4,62.4,0,0,1,4.87-11.48A39.56,39.56,0,0,1,95,16.37l2.74-2.47M139.93,64h21.12a50.93,50.93,0,0,0-5.26-21.64l-.23-.56H137l.26,1a89.57,89.57,0,0,1,2.65,20l0,1.13M110.08,48l-2.3-1.55V41.8H84.07l-.16.6a85.52,85.52,0,0,0-2.85,20.44L81,64H95.91v2.29H81l0,.88a85.94,85.94,0,0,0,2.85,20.49l.16.82h23.71V81.76l2.3-1.54v8.26h24l.16-.78a88.24,88.24,0,0,0,2.85-20.63l0-.78h-8.62a6.43,6.43,0,0,0,.37-2.29h8.25l0-1.08a88.67,88.67,0,0,0-2.85-20.68l-.16-.44h-24V48M57.13,64H78.27l0-1a91.23,91.23,0,0,1,2.65-20.3l.26-.86H62.64l-.23.45a51.32,51.32,0,0,0-5.25,20.57l0,1.18M137,88.48h18.56l.23-.55a51.34,51.34,0,0,0,5.26-21.64H139.93l0,.84a90,90,0,0,1-2.65,20.11L137,88.48m-74.36,0H81.2l-.26-1.2A90.78,90.78,0,0,1,78.29,67l0-.74H57.13l0,.9a51.56,51.56,0,0,0,5.25,20.62l.23.67m57.81,27.24,3.54-1a51.83,51.83,0,0,0,29.3-22.29l.79-.92H136.2l-.19.24a59.52,59.52,0,0,1-4.87,11.1,40.17,40.17,0,0,1-7.94,10.32l-2.75,2.52M133.3,91.54H110.08v24.73l1.16-.06c6.54-1,12.72-6,17.48-14.52a57.44,57.44,0,0,0,4.2-9.4l.38-.75m-25.52,24.73V91.54H84.9l.38.75a55.44,55.44,0,0,0,4.22,9.22c4.76,8.55,10.75,13.61,17.29,14.61l1,.15M109.1,9A55.81,55.81,0,0,0,59.3,89.9l.15.3.3.14c1.33.66,2.71,1.37,4.12,2.09l.21.11h17.3a61.88,61.88,0,0,0,4.81,11,40.93,40.93,0,0,0,7.45,9.83l-2.74-.84L93,115.09c.71.85,1.42,1.72,2.13,2.59l.91,1.11.22.26.33.08a56.54,56.54,0,0,0,12.47,1.39,55.76,55.76,0,0,0,39.43-95.19A55.43,55.43,0,0,0,109.1,9Zm2,28.74V14.39h0c6.27,1,12,5.84,16.63,14.11a58.64,58.64,0,0,1,4.12,9.24Zm-24.79,0a56.6,56.6,0,0,1,4.07-9.23c4.56-8.2,10.23-13.07,16.42-14.09V37.74Zm50.65,0A63.8,63.8,0,0,0,132,26.19a41.49,41.49,0,0,0-7.61-10.07,51.11,51.11,0,0,1,27.9,21.62Zm-71,0A51.11,51.11,0,0,1,93.76,16.15a41.53,41.53,0,0,0-7.57,10,64,64,0,0,0-4.93,11.56Zm72.39,5.06h16.6A50.33,50.33,0,0,1,160,63H140.91v-.14a91.15,91.15,0,0,0-2.62-20.06Zm-27.21,0h22.33A88.08,88.08,0,0,1,136.14,63v0h-8.25l0,1a5.38,5.38,0,0,1-.32,1.94l-.47,1.33h9a87.48,87.48,0,0,1-2.8,20.15v0H111.08V78.35l-1.56,1-2.3,1.54-.44.3v6.25H84.89V87.4a85.68,85.68,0,0,1-2.81-20.11H96.91V63H82.06v-.14A85.26,85.26,0,0,1,84.83,42.8h22v4.14l.44.29,2.29,1.56,1.57,1.06V42.8Zm-47.83,0H79.87a93.47,93.47,0,0,0-2.58,20.14V63H58.16v-.15A50.34,50.34,0,0,1,63.25,42.8Zm77.66,24.49H160a50.56,50.56,0,0,1-5.12,20.19H138.23v0a91.33,91.33,0,0,0,2.67-20.16Zm-82.74,0H77.29A93.46,93.46,0,0,0,80,87.48H63.35l0,0,0-.06a50.45,50.45,0,0,1-5.14-20.08Zm78.65,25.25h15.24a51,51,0,0,1-27.85,21.09,41.11,41.11,0,0,0,7.8-10.26,61,61,0,0,0,4.81-10.83Zm-25.74,0h20.7a57.51,57.51,0,0,1-3.94,8.66c-4.48,8-10.41,13-16.71,14h0V92.54Zm-24.65,0h20.35v22.57c-6.17-1-11.84-5.88-16.41-14.08a55.78,55.78,0,0,1-3.94-8.49Z"/><path class="cls-1" d="M123.9,62,102.8,47.67c-1.54-1.15-3-.22-3,2V78.43c0,2.27,1.51,3.2,3,2l21.06-14.12A2.6,2.6,0,0,0,123.9,62Z"/><path class="cls-2" d="M101.5,47.18a2.18,2.18,0,0,1,1.3.49L123.9,62a2.6,2.6,0,0,1,0,4.37L102.8,80.48a2.25,2.25,0,0,1-1.3.49c-1,0-1.75-.93-1.75-2.54V49.72c0-1.61.76-2.54,1.75-2.54m0-1c-1.33,0-2.75,1.1-2.75,3.54V78.43c0,2.43,1.42,3.54,2.75,3.54a3.17,3.17,0,0,0,1.88-.68l21-14.1a3.56,3.56,0,0,0,1.66-3,3.81,3.81,0,0,0-1.62-3.06l-21.1-14.33a3.13,3.13,0,0,0-1.86-.66Z"/><path class="cls-1" d="M11.52,114.83l4.27-3.24a78.94,78.94,0,0,1,38.35.36c21,5.46,34.36,15.94,34.36,15.94l21.18,17.5S91,131.66,81.55,127.18,56.43,113,35,113a179.35,179.35,0,0,0-23.44,1.84Zm9-26.35A189.52,189.52,0,0,1,44.37,92c21.39,4.95,34.62,17.9,43,24.42S111,140.59,111,140.59L94.13,118.74S83.33,105.49,63.75,95.4a82.49,82.49,0,0,0-38.16-9.09l-5,2.17Zm-5.08,12.85a189.44,189.44,0,0,1,24.07,1.18c21.8,2.79,36.29,14.36,45.3,20s26,21.65,26,21.65l-19-20.06S79.69,112,59.17,103.93a82.5,82.5,0,0,0-38.9-5.27Z"/><path class="cls-2" d="M27,86.28A83.9,83.9,0,0,1,63.75,95.4c19.58,10.09,30.38,23.34,30.38,23.34L111,140.59S95.74,123,87.37,116.46,65.76,97,44.37,92a189.52,189.52,0,0,0-23.82-3.56l5-2.17s.5,0,1.42,0m1.46,11.9a84.66,84.66,0,0,1,30.7,5.75c20.52,8.09,32.63,20.2,32.63,20.2l19,20.06s-17-16-26-21.65-23.5-17.24-45.3-20A181.67,181.67,0,0,0,18,101.31c-1.59,0-2.53,0-2.53,0l4.8-2.67a59.42,59.42,0,0,1,8.2-.48m5.62,11.25a79.88,79.88,0,0,1,20,2.52c21,5.46,34.36,15.94,34.36,15.94l21.18,17.5S91,131.66,81.55,127.18,56.43,113,35,113h-.23a180.87,180.87,0,0,0-23.21,1.84l4.27-3.24a71.46,71.46,0,0,1,18.3-2.16M27,85.28c-.93,0-1.45,0-1.47,0h-.18l-.16.07-5.05,2.17-3.71,1.6,4,.32A189,189,0,0,1,44.14,93c18.12,4.18,30.5,14.35,38.7,21.07,1.39,1.14,2.7,2.22,3.91,3.16,8.21,6.4,23.33,23.82,23.48,24l1.54-1.27L94.92,118.13A105,105,0,0,0,64.2,94.52,85.23,85.23,0,0,0,27,85.28Zm1.46,11.9a60,60,0,0,0-8.35.49l-.18,0-.16.09L15,100.45l-3.53,2,4-.08s.94,0,2.51,0a179.43,179.43,0,0,1,21.41,1.19c18.46,2.36,31.83,11.25,40.68,17.13,1.5,1,2.92,1.94,4.22,2.75,5.9,3.71,15.38,12,21.07,17.16L89.14,127.12A104.74,104.74,0,0,0,54.39,111a80.84,80.84,0,0,0-20.3-2.55,71.73,71.73,0,0,0-18.58,2.2l-.18.05-.15.11L10.92,114,7.79,116.4l3.88-.59A183.68,183.68,0,0,1,34.73,114H35c18.17,0,32.33,7.17,41.7,11.89,1.59.8,3.09,1.56,4.46,2.21,9.3,4.39,27.78,18,28,18.11l1-1.31,0,0,1.41-1.42-19-20.06a105.83,105.83,0,0,0-33-20.44,85.57,85.57,0,0,0-31.06-5.82Z"/><path class="cls-1" d="M210.94,114.82l-4.27-3.24a78.94,78.94,0,0,0-38.35.36c-21,5.46-34.36,15.94-34.36,15.94l-21.18,17.5s18.64-13.72,28.14-18.21S166,113,187.51,113a181.3,181.3,0,0,1,23.43,1.84Zm-9-26.35-5-2.17a70.71,70.71,0,0,0-14.45,1.2l-1.66,4a197.8,197.8,0,0,1,21.16-3Zm-84,43.71,1.21-.16c-4.38,4.74-7.69,8.56-7.69,8.56l6.48-8.4Zm89-30.86-4.79-2.67a79,79,0,0,0-24.95,1.19l-.15.34-8.69,5.66a76,76,0,0,1,14.52-3.34A189.26,189.26,0,0,1,207,101.32Zm-83,29.8,1.6-.38a17.75,17.75,0,0,0,1.88-.6c-7.91,6.55-15.87,14-15.87,14Z"/><path class="cls-2" d="M195.46,86.27c.91,0,1.41,0,1.41,0l5,2.17a197.8,197.8,0,0,0-21.16,3l1.66-4a77.37,77.37,0,0,1,13-1.23M194,98.18a60.67,60.67,0,0,1,8.2.47l4.79,2.67s-.93,0-2.52,0a181.57,181.57,0,0,0-21.54,1.2,76,76,0,0,0-14.52,3.34l8.69-5.66.15-.34A86.19,86.19,0,0,1,194,98.18m-5.63,11.24a71.46,71.46,0,0,1,18.3,2.16l4.27,3.24A180.87,180.87,0,0,0,187.73,113h-.22c-21.48,0-37.1,9.71-46.59,14.19s-28.14,18.21-28.14,18.21L134,127.88s13.39-10.48,34.36-15.94a79.93,79.93,0,0,1,20.05-2.52M127.5,130.14c-7.91,6.55-15.87,14-15.87,14L124,131.12l1.6-.38a17.75,17.75,0,0,0,1.88-.6M119.17,132c-4.38,4.74-7.69,8.56-7.69,8.56l6.48-8.4,1.21-.16m76.29-46.75a78.11,78.11,0,0,0-13.21,1.24l-.54.1-.21.5-1.66,4-.73,1.75,1.85-.38a199.2,199.2,0,0,1,21-3l4-.31-3.71-1.6-5-2.18-.17-.07h-.18s-.53,0-1.46,0ZM194,97.18v0a86.6,86.6,0,0,0-16.95,1.68l-.52.1-.2.49,0,.06-8.44,5.5-6.57,4.28,7.44-2.5a75.38,75.38,0,0,1,14.32-3.3,179.58,179.58,0,0,1,21.42-1.19c1.57,0,2.49,0,2.5,0l4,.08-3.52-2-4.8-2.66-.16-.09-.17,0a61.19,61.19,0,0,0-8.35-.48Zm-5.63,11.24a81,81,0,0,0-20.3,2.55,104.9,104.9,0,0,0-34.73,16.12l-16.25,13.43c3-2.71,7-6.29,11-9.61l4.63-3.83-5.62,2.13a17.74,17.74,0,0,1-1.77.56l-1.58.37-.3.07-.2.22L110.91,143.5l1.41,1.41,0,0,1,1.31c.19-.14,18.67-13.72,28-18.11,1.37-.65,2.88-1.41,4.47-2.21,9.37-4.72,23.53-11.85,41.7-11.89h.22a184.15,184.15,0,0,1,23.07,1.82l3.88.59L211.55,114l-4.27-3.24-.15-.11-.17,0a72,72,0,0,0-18.59-2.2Zm-66.54,22.2L119,131l-1.2.16-.41.05-.25.33-6.48,8.4,1.55,1.27s3.35-3.87,7.67-8.54l1.92-2.08Z"/><path class="cls-1" d="M2,119.91c1.06-.9.67-.51,1.72-1.4l11.06,3,91.76,24.92c1.14.31,2.35.57,3.4.95a4.82,4.82,0,0,0,3.16,0Q165.78,133,218.46,118.7l.77-.18c1,.86,1,.92,2.09,1.83-1.47.47-65.22,19.11-96.22,28.84-.82.26-1.24.5-1.22,1.08.05,1.8-2.59,3.19-6.07,3.23q-6.33.06-12.66,0c-3.5,0-6.12-1.43-6.08-3.22,0-.57-.39-.83-1.22-1.09-24.17-7.59-86.73-26.4-94.55-28.86C2.89,120.21,2.49,120.07,2,119.91Z"/><path class="cls-2" d="M3.73,118.51l11.06,3,91.76,24.92c1.14.31,2.35.57,3.4.95a4.17,4.17,0,0,0,1.42.25,6.5,6.5,0,0,0,1.74-.28Q165.78,133,218.46,118.7l.77-.18c1,.86,1,.92,2.09,1.83-1.47.47-65.22,19.11-96.22,28.84-.82.26-1.24.5-1.22,1.08.05,1.8-2.59,3.19-6.07,3.23q-3.24,0-6.48,0-3.09,0-6.18,0c-3.5,0-6.12-1.43-6.08-3.22,0-.57-.39-.83-1.22-1.09-24.17-7.59-86.73-26.4-94.55-28.86-.41-.12-.81-.26-1.29-.42,1.06-.9.67-.51,1.72-1.4m-.24-1.1-.4.34c-.5.42-.66.54-.81.65s-.36.27-.92.74L0,120.29l1.69.57.36.12,1,.31c2.86.9,13.11,4,26.09,7.94,22.43,6.8,53.14,16.11,68.45,20.92a2.92,2.92,0,0,1,.52.2,3.06,3.06,0,0,0,.93,2.11c1.19,1.25,3.49,2,6.14,2,2.06,0,4.13,0,6.19,0s4.33,0,6.49,0c2.64,0,4.93-.79,6.14-2a3.07,3.07,0,0,0,.92-2.12,3.31,3.31,0,0,1,.52-.2c25-7.86,71.61-21.58,89.14-26.74l7.09-2.09,1.72-.55L222,119.59l-1.07-.93c-.26-.24-.52-.47-1-.9l-.38-.33-.49.12-.24,0-.55.14-16.52,4.48-88.84,24.16a5.51,5.51,0,0,1-1.48.25,3.2,3.2,0,0,1-1.08-.19c-.77-.28-1.61-.49-2.43-.7l-1-.27-55.33-15-36.43-9.9-11-3-.51-.13Z"/><path class="cls-1" d="M173,29.89a5.38,5.38,0,1,1-1.82-7.39A5.38,5.38,0,0,1,173,29.89ZM47.35,86.58a62.5,62.5,0,0,1-3-10.71,61.53,61.53,0,0,1-1-9.63l4.18-.18a57,57,0,0,0,.9,9.08,58.42,58.42,0,0,0,2.76,10l-3.91,1.46ZM174,30.49a6.55,6.55,0,1,0-9,2.21,6.55,6.55,0,0,0,9-2.21Zm-3.83-11a4.12,4.12,0,0,1-2.75-2.63,1.11,1.11,0,0,0-1.43-.64l-3.51,1.33a1.11,1.11,0,0,0-.64,1.43l.62,1.65a2.56,2.56,0,0,1-.43,2.21c-1.11,1.73-2.08,1.65-3.85,1.74a1.12,1.12,0,0,0-1.06,1.17l.18,3.74a1.08,1.08,0,0,0,1.17,1.06c1.1-.21,2.66.85,3.38,1.61a3.41,3.41,0,0,1,1,1.92,4.16,4.16,0,0,1-.14,1.68,1.11,1.11,0,0,0,.78,1.36l1.82.5,1.82.49a1.11,1.11,0,0,0,1.36-.79,4.25,4.25,0,0,1,.73-1.51,3.36,3.36,0,0,1,1.79-1.17c1-.29,2.89-.42,3.73.31a1.07,1.07,0,0,0,1.54-.32l2.06-3.14a1.12,1.12,0,0,0-.33-1.54c-1.48-1-2.36-1.39-2.44-3.45a2.57,2.57,0,0,1,.75-2.12l1.37-1.11a1.12,1.12,0,0,0,.17-1.56l-2.35-2.92a1.11,1.11,0,0,0-1.57-.17,4.13,4.13,0,0,1-3.7.87ZM159.8,36.61c-.52.91-1.23.09-1.43-.17l-1.49-1.91c-.2-.25-.85-1.18.19-1.42a2.64,2.64,0,0,0,1.64-1.43A4.39,4.39,0,0,1,161,33a2.13,2.13,0,0,1,.64,1.26,3,3,0,0,1-.07,1.08,2.94,2.94,0,0,0-1.74,1.31Zm-1.51-13.22a2.52,2.52,0,0,0-1.59-.86c-1-.14-.46-1.14-.28-1.41l1.35-2c.19-.27.88-1.19,1.41-.26a3,3,0,0,0,1.87,1.41l.29.77A1.64,1.64,0,0,1,161,22.2c-.79,1.24-1.42,1.14-2.73,1.19ZM168.74,17a2.62,2.62,0,0,0,.4-1.73c-.17-1,.93-.79,1.24-.7l2.34.67c.31.09,1.4.47.68,1.26a2.14,2.14,0,0,0-.45,1.37,2.9,2.9,0,0,1-2.48.52h-.05A2.81,2.81,0,0,1,168.74,17Zm8.82,7.84a4,4,0,0,0,2.36,0c1-.29,1,.65,1.05,1l.09,2.43c0,.32.08,1.06-1,1a6.39,6.39,0,0,0-1.08.07,2.44,2.44,0,0,0-.42-.35c-1.2-.79-1.85-1-1.92-2.52a1.65,1.65,0,0,1,.34-1.18l.57-.46Zm-4.1,10.84a2.72,2.72,0,0,0,.68,2.38c.75.73-.28,1.19-.59,1.3l-2.28.83c-.31.11-1.44.44-1.29-.62a2.74,2.74,0,0,0-.45-1.85v-.06a3.32,3.32,0,0,1,.52-1.11,2.28,2.28,0,0,1,1.2-.76,5.76,5.76,0,0,1,2.2-.11Zm11.61-9.72-.19,0a.29.29,0,0,1-.31-.26l-.44-5.31a.29.29,0,0,1,.25-.31l.2,0a.3.3,0,0,1,.31.26l.09,1.15a.23.23,0,0,1,.11,0l1.91-.18a.29.29,0,0,1,.31.26l.24,2.59a.3.3,0,0,1-.26.31l-1.92.17a.2.2,0,0,1-.13,0l.09,1.06a.28.28,0,0,1-.26.31Zm-.89-1a.11.11,0,0,0,.1-.12L184,21.38a.12.12,0,0,0-.12-.1l-2.47.24c-.26-1.64-.54-3.27-.81-4.78l1.2-.12h0a1.44,1.44,0,0,0,1-.52,1.49,1.49,0,0,0,.33-1v0a1.43,1.43,0,0,0-.53-1,1.41,1.41,0,0,0-1.06-.33l-1.48.14-.21-1.06,1.26-.12h0a1.47,1.47,0,0,0,1.31-1.55v0a1.42,1.42,0,0,0-.52-1,1.45,1.45,0,0,0-1.06-.32l-1.58.15,0-.28a2.26,2.26,0,0,0-.11-.37v0A79.56,79.56,0,0,1,168,9c1.78-.79,6.8-.86,10.76-.42a8,8,0,0,0-4.34-2.59A13.23,13.23,0,0,0,169,5.42a2.28,2.28,0,0,0-.36.1,8.85,8.85,0,0,0-3.6,3.1,8.93,8.93,0,0,0-1.79,4.26c-.08,1-.13,2.11-.16,3.18l2.49-.95a2.28,2.28,0,0,1,2.4.5,1.22,1.22,0,0,0,.06-.26v-.11h0V15c-.3-1.87,1.33-2.51,2.82-2.09l2.41.7c1.52.43,2.56,1.85,1.27,3.27a.59.59,0,0,0-.12.3,2.3,2.3,0,0,1,2,.84L178.69,21a2.3,2.3,0,0,1,.12,2.71,3.08,3.08,0,0,0,1.19-.11h1.52l0,0h.11l0,0h0a2.12,2.12,0,0,1,.86,1.36l1.61-.16Zm-5.37,44.42a13.27,13.27,0,0,0,3,2.85l-.58.76-3-2.6-.58.67,3,2.62-.69.83L177.12,72l-.58.66,2.84,2.47c-.4.4-.7.62-.81.51-.28-.27-.6-.53-.91-.8A4.46,4.46,0,0,1,176.09,73c-.55,1.08-1.38,2.46-2.14,3.69l-.29-.42c2.08-5.84,2.9-6.18,2.9-11.42s0-16.34.15-22a28.15,28.15,0,0,1-5,5.28c-3.39,2.68,3.36-5.93,5.44-7.21a7.37,7.37,0,0,1,1-.8c-.09,4.73,0,8.56.17,12.23s.25,7.9.15,11.87l1.39-.73c.1-4.08,0-7.55-.14-11.19-.13-3.9-.27-8-.16-13.08.64-.38,1.29-.76,1.89-1.17s1.09-5.16,1.1-6l2.39-.26a.1.1,0,0,0,.09-.12l-.31-3.42a.12.12,0,0,0-.12-.1l-1.83.22a2.51,2.51,0,0,1-.32,1.18h0v0h0v0h-.05v0h0l0,0h0v0h0l0,0h-.07l0,0,0,0h0l0,0h0l0,0h0l0,0h0l0,0h0l0,0h0l0,0h0l0,0h0l0,0h-.15l0,0h-1.12a6.19,6.19,0,0,0-.88.06,2.38,2.38,0,0,1-.35,1.55l-2.06,3.14a2.33,2.33,0,0,1-2.34,1,1.55,1.55,0,0,0,.38,1.24c1.35,1.33.4,2.81-1.05,3.34l-2.36.86c-1.49.54-3.2,0-2.95-1.93v-.25h0v-.16l0-.1h0l0-.12h0l0-.1v0l0-.07,0,0v0a2.27,2.27,0,0,1-1.95.37l-1.82-.5-1-.28c.68,18.35,2.37,34.39-1.57,52.3a58.23,58.23,0,0,1-4.39,7.93l2,1.57,1.3,1,2.87,2.27c6-6.18,10.24-13.26,14.19-22.67l5.46-8.29a2,2,0,0,0,.78-.56c.64-.67.47-2.15.38-2.87a6.47,6.47,0,0,0-1.42-2.93,4.59,4.59,0,0,0-2.5-1.39c-2-.32-2.63.9-2.88,2.64a2.49,2.49,0,0,0,.71,1.87Zm7-36.46h-.2a.29.29,0,0,1-.31-.26l-.44-5.3a.28.28,0,0,1,.26-.31l.19,0a.28.28,0,0,1,.31.26l.1,1.14.1,0,1.91-.17a.29.29,0,0,1,.32.26l.23,2.58a.28.28,0,0,1-.26.31l-1.91.18-.13,0,.09,1.05a.31.31,0,0,1-.26.32Zm-82,92c2.41.16,9-.16,11-.35v.08l.49,4.07v.09c-1.94.16-3.89.25-5.84.25-.59,0-1.34,0-2.24-.05a6.77,6.77,0,0,1-.7,0l-2.69-4.07Zm15.82,3.37v-.13l-.48-4,0-.12q2.3-.39,4.56-1a57.19,57.19,0,0,0,14.37-5.74,60.18,60.18,0,0,0,17.05-14c.44-.58.89-1.13,1.33-1.66l5.74,4.17A103.77,103.77,0,0,1,147,116.38h0a60.38,60.38,0,0,1-6.9,4.54c-5,2.83-13.92,6.34-20.48,7.34ZM155.93,25.43a2.31,2.31,0,0,1,.92-1.59,1.43,1.43,0,0,0-.67-.28c-1.9-.25-2-2-1.14-3.32l.67-1A67.19,67.19,0,0,0,149,13.66L146.38,17a62.94,62.94,0,0,1,6.88,5.73c.92.89,1.81,1.81,2.67,2.75ZM43.47,62a62.27,62.27,0,0,1,14.1-36.64l3.28,2.58A58.18,58.18,0,0,0,47.66,61.8L43.47,62ZM60.46,22c.75-.81,1.53-1.6,2.32-2.36a66.72,66.72,0,0,1,37.33-18l.5,4.15A62.55,62.55,0,0,0,65.68,22.68c-.66.64-1.3,1.28-1.93,1.95L60.46,22Zm44-20.86c1.64-.12,3.31-.18,5-.18a67.37,67.37,0,0,1,35.84,10.21l-2.59,3.3a63.37,63.37,0,0,0-33.25-9.33c-1.51,0-3,.06-4.5.16l-.49-4.16ZM183.1,70c-.37.47-1.19.2-1.83-.59s-.87-1.83-.5-2.3,1.19-.21,1.84.59.86,1.83.49,2.3ZM168,26.23l3.62-1.34a3.93,3.93,0,0,0-7.16,2.65L168,26.23Zm-2.65,3.39a3.79,3.79,0,0,0,1,.84,3.93,3.93,0,0,0,5.4-1.32,3.85,3.85,0,0,0,.57-2.08Z"/><path class="cls-2" d="M109.47,1a67.37,67.37,0,0,1,35.84,10.21l-2.59,3.3a63.37,63.37,0,0,0-33.25-9.33c-1.51,0-3,.06-4.5.16l-.49-4.16c1.64-.12,3.31-.18,5-.18m-9.36.64.5,4.15A62.55,62.55,0,0,0,65.68,22.68c-.66.64-1.3,1.28-1.93,1.95L60.46,22c.75-.81,1.53-1.6,2.32-2.36a66.72,66.72,0,0,1,37.33-18M170.2,5.32a15.78,15.78,0,0,1,4.17.62,8,8,0,0,1,4.34,2.59,48.15,48.15,0,0,0-5-.27A17.12,17.12,0,0,0,168,9a64.87,64.87,0,0,0,8.21.37c1,0,2,0,2.93-.06v0a2.26,2.26,0,0,1,.11.37l0,.28,1.58-.15H181a1.45,1.45,0,0,1,1.44,1.31v0a1.47,1.47,0,0,1-1.31,1.55h0l-1.26.12.21,1.06,1.48-.14h.14A1.49,1.49,0,0,1,183.11,15v0a1.49,1.49,0,0,1-.33,1,1.44,1.44,0,0,1-1,.52h0l-1.2.12c.27,1.51.55,3.14.81,4.78l2.47-.24h0a.12.12,0,0,1,.11.1l.31,3.42a.11.11,0,0,1-.1.12l-1.61.16a2.12,2.12,0,0,0-.86-1.36h0l0,0h-.11l0,0H180a3.4,3.4,0,0,1-.87.13l-.32,0a2.3,2.3,0,0,0-.12-2.71L176.34,18a2.3,2.3,0,0,0-1.78-.85h-.18a.59.59,0,0,1,.12-.3c1.29-1.42.25-2.84-1.27-3.27l-2.41-.7a3.39,3.39,0,0,0-.88-.12A1.79,1.79,0,0,0,168,15v.2h0v.11a1.22,1.22,0,0,1-.06.26,2.28,2.28,0,0,0-1.59-.65,2.32,2.32,0,0,0-.81.15l-2.49.95c0-1.07.08-2.13.16-3.18A8.93,8.93,0,0,1,165,8.62a8.85,8.85,0,0,1,3.6-3.1,2.28,2.28,0,0,1,.36-.1,6.27,6.27,0,0,1,1.24-.1M149,13.66a67.19,67.19,0,0,1,6.75,5.59l-.67,1c-.87,1.28-.76,3.07,1.14,3.32a1.43,1.43,0,0,1,.67.28,2.31,2.31,0,0,0-.92,1.59c-.86-.94-1.75-1.86-2.67-2.75A62.94,62.94,0,0,0,146.38,17L149,13.66m20.84.78a2,2,0,0,1,.58.09l2.34.67c.31.09,1.4.47.68,1.26a2.14,2.14,0,0,0-.45,1.37,3.1,3.1,0,0,1-1.79.62,2.35,2.35,0,0,1-.69-.1h-.05A2.81,2.81,0,0,1,168.74,17a2.62,2.62,0,0,0,.4-1.73c-.11-.64.28-.79.66-.79m-3.45,1.69a1.11,1.11,0,0,1,1,.72,4.12,4.12,0,0,0,2.75,2.63h0a3.77,3.77,0,0,0,1,.14,4.32,4.32,0,0,0,2.7-1,1.09,1.09,0,0,1,.7-.25,1.11,1.11,0,0,1,.87.42l2.35,2.92a1.12,1.12,0,0,1-.17,1.56l-1.37,1.11a2.57,2.57,0,0,0-.75,2.12c.08,2.06,1,2.48,2.44,3.45a1.12,1.12,0,0,1,.33,1.54l-2.06,3.14a1.16,1.16,0,0,1-1,.53.85.85,0,0,1-.58-.21,3.14,3.14,0,0,0-2-.54,6.65,6.65,0,0,0-1.73.23,3.36,3.36,0,0,0-1.79,1.17,4.25,4.25,0,0,0-.73,1.51,1.11,1.11,0,0,1-1.07.83.92.92,0,0,1-.29,0l-1.82-.49-1.82-.5a1.11,1.11,0,0,1-.78-1.36,4.16,4.16,0,0,0,.14-1.68,3.41,3.41,0,0,0-1-1.92,5.24,5.24,0,0,0-3.09-1.64,1.43,1.43,0,0,0-.29,0h-.15a1.11,1.11,0,0,1-1-1.07l-.18-3.74a1.12,1.12,0,0,1,1.06-1.17c1.77-.09,2.74,0,3.85-1.74a2.56,2.56,0,0,0,.43-2.21L161.81,19a1.11,1.11,0,0,1,.64-1.43L166,16.21a1.09,1.09,0,0,1,.39-.08m2,17.52A6.55,6.55,0,1,0,165,32.7a6.53,6.53,0,0,0,3.38.95m-9.72-15.2c.19,0,.37.1.54.4a3,3,0,0,0,1.87,1.41l.29.77A1.64,1.64,0,0,1,161,22.2c-.79,1.24-1.42,1.14-2.73,1.19a2.52,2.52,0,0,0-1.59-.86c-1-.14-.46-1.14-.28-1.41l1.35-2c.13-.18.49-.66.87-.66m26,1.59a.28.28,0,0,1,.29.26l.09,1.15a.23.23,0,0,1,.11,0l1.91-.18h0a.28.28,0,0,1,.29.26l.24,2.59a.3.3,0,0,1-.26.31l-1.92.17h0a.22.22,0,0,1-.11,0l.09,1.06a.28.28,0,0,1-.26.31l-.19,0h0a.28.28,0,0,1-.28-.26l-.44-5.31a.29.29,0,0,1,.25-.31l.2,0h0m-16.23,1.68a5.39,5.39,0,0,1,4.6,8.17,5.38,5.38,0,0,1-4.61,2.59,5.32,5.32,0,0,1-2.78-.78,5.38,5.38,0,0,1,2.79-10m-3.91,5.82L168,26.23l3.62-1.34a4,4,0,0,0-1.22-1.15,3.83,3.83,0,0,0-2-.57A3.9,3.9,0,0,0,165,25.06a4,4,0,0,0-.55,2.48m3.9,3.49a3.93,3.93,0,0,0,3.37-1.89,3.85,3.85,0,0,0,.57-2.08l-7,2.56a3.79,3.79,0,0,0,1,.84,3.88,3.88,0,0,0,2,.57m11.91-6.28c.66,0,.69.74.7,1l.09,2.43c0,.32.07,1-.94,1h-.19a5.69,5.69,0,0,0-.94.07,2.44,2.44,0,0,0-.42-.35c-1.2-.79-1.85-1-1.92-2.52a1.65,1.65,0,0,1,.34-1.18l.57-.46a3.82,3.82,0,0,0,1.17.18,4.19,4.19,0,0,0,1.19-.18,1.63,1.63,0,0,1,.35-.05m-122.7.59,3.28,2.58A58.18,58.18,0,0,0,47.66,61.8L43.47,62a62.27,62.27,0,0,1,14.1-36.64M185.38,27a.28.28,0,0,1,.28.26l.1,1.14.1,0,1.91-.17h0a.29.29,0,0,1,.29.26l.23,2.58a.28.28,0,0,1-.26.31l-1.91.18h0l-.11,0,.09,1.05a.31.31,0,0,1-.26.32h-.22a.29.29,0,0,1-.29-.26l-.44-5.3a.28.28,0,0,1,.26-.31l.19,0h0m-.8,1.21a.11.11,0,0,1,.1.1l.31,3.42a.1.1,0,0,1-.09.12l-2.39.26c0,.81-.61,5.64-1.1,6s-1.25.79-1.89,1.17c-.11,5.1,0,9.18.16,13.08.13,3.64.24,7.11.14,11.19l-1.39.73c.1-4,0-8.22-.15-11.87s-.26-7.5-.17-12.23a7.37,7.37,0,0,0-1,.8c-1.8,1.11-7.11,7.73-6.29,7.73.13,0,.4-.16.85-.52a28.15,28.15,0,0,0,5-5.28c-.14,5.63-.15,16.68-.15,22s-.82,5.58-2.9,11.42l.29.42c.76-1.23,1.59-2.61,2.14-3.69a4.46,4.46,0,0,0,1.57,1.83c.31.27.63.53.91.8a.09.09,0,0,0,.07,0c.15,0,.41-.21.74-.54l-2.84-2.47.58-.66L180,74.47l.69-.83-3-2.62.58-.67,3,2.6.58-.76a13.27,13.27,0,0,1-3-2.85,2.49,2.49,0,0,1-.71-1.87c.23-1.55.71-2.69,2.27-2.69a4.15,4.15,0,0,1,3.11,1.44,6.47,6.47,0,0,1,1.42,2.93c.09.72.26,2.2-.38,2.87a2,2,0,0,1-.78.56l-5.46,8.29c-3.95,9.41-8.16,16.49-14.19,22.67l-2.87-2.27-1.3-1-2-1.57a58.23,58.23,0,0,0,4.39-7.93c3.94-17.91,2.25-33.95,1.57-52.3l1,.28,1.82.5a2.47,2.47,0,0,0,.6.08,2.24,2.24,0,0,0,1.35-.45v0l0,0,0,.07v0l0,.1h0l0,.12h0l0,.1v.16h0v.25a1.73,1.73,0,0,0,1.87,2.12,3.2,3.2,0,0,0,1.08-.19l2.36-.86c1.45-.53,2.4-2,1.05-3.34a1.55,1.55,0,0,1-.38-1.24,1.75,1.75,0,0,0,.4,0,2.35,2.35,0,0,0,1.94-1.06l2.06-3.14a2.38,2.38,0,0,0,.35-1.55,4.72,4.72,0,0,1,.77-.06h1.23l0,0h.15l0,0h0l0,0h0l0,0h0l0,0h0l0,0h0l0,0h0l0,0h0l0,0h0l0,0,0,0h.07l0,0h0v0h0l0,0h0v0h.05v0h0v0h0a2.51,2.51,0,0,0,.32-1.18l1.83-.22h0m-2,42a.61.61,0,0,0,.5-.24c.37-.47.15-1.5-.49-2.3a2,2,0,0,0-1.34-.83.62.62,0,0,0-.5.24c-.37.47-.15,1.5.5,2.3a1.93,1.93,0,0,0,1.33.83M158.77,31.68A4.57,4.57,0,0,1,161,33a2.13,2.13,0,0,1,.64,1.26,3,3,0,0,1-.07,1.08,2.94,2.94,0,0,0-1.74,1.31c-.18.31-.37.42-.57.42-.37,0-.72-.42-.86-.59l-1.49-1.91c-.2-.25-.85-1.18.19-1.42a2.64,2.64,0,0,0,1.64-1.43h.06m14,3.89a3.11,3.11,0,0,1,.71.07,2.72,2.72,0,0,0,.68,2.38c.75.73-.28,1.19-.59,1.3l-2.28.83a2.13,2.13,0,0,1-.69.14c-.35,0-.68-.16-.6-.76a2.74,2.74,0,0,0-.45-1.85v-.06a3.32,3.32,0,0,1,.52-1.11,2.28,2.28,0,0,1,1.2-.76,6.09,6.09,0,0,1,1.49-.18M47.6,66.06a57,57,0,0,0,.9,9.08,58.42,58.42,0,0,0,2.76,10l-3.91,1.46a62.5,62.5,0,0,1-3-10.71,61.53,61.53,0,0,1-1-9.63l4.18-.18m108.84,35.53,5.74,4.17A103.77,103.77,0,0,1,147,116.38a60.38,60.38,0,0,1-6.9,4.54c-5,2.83-13.92,6.34-20.48,7.34v-.13l-.48-4,0-.12q2.3-.39,4.56-1a57.19,57.19,0,0,0,14.37-5.74,60.18,60.18,0,0,0,17.05-14c.44-.58.89-1.13,1.33-1.66m-41.66,23v.08l.49,4.07v.09c-1.94.16-3.89.25-5.84.25-.59,0-1.34,0-2.24-.05h-.37c-.06,0,0,0,0,0l-.31,0-2.69-4.07c.45,0,1.05,0,1.73,0,3,0,7.6-.24,9.23-.4M109.47,0c-1.69,0-3.39.06-5.07.18l-1,.08.12,1,.5,4.16.11.94,1-.06c1.48-.1,3-.16,4.43-.16a62.35,62.35,0,0,1,32.72,9.19l.76.46.55-.7,2.6-3.3.69-.88-.95-.59A68.48,68.48,0,0,0,109.47,0ZM101,.51l-1,.13A67.28,67.28,0,0,0,62.09,19c-.79.76-1.59,1.57-2.36,2.39l-.74.8.85.67,3.3,2.59.71.57.63-.67c.62-.65,1.25-1.29,1.89-1.91A61.22,61.22,0,0,1,100.75,6.78l1-.13-.12-1-.49-4.15-.12-1ZM170.2,4.32h0a7.56,7.56,0,0,0-1.45.12,4.39,4.39,0,0,0-.5.14A9.71,9.71,0,0,0,164.19,8a9.84,9.84,0,0,0-2,4.77c-.08,1-.14,2.1-.17,3.24v.59a2.08,2.08,0,0,0-1.12,1.08,2.12,2.12,0,0,0-.12,1.38,1.91,1.91,0,0,1-.75-.74,1.58,1.58,0,0,0-1.41-.9h0a2.18,2.18,0,0,0-1.69,1.1l-.21.3-.35-.33a67.68,67.68,0,0,0-6.84-5.67l-.78-.56-.59.76-2.59,3.28-.64.82.85.61a61.79,61.79,0,0,1,6.76,5.64c.9.87,1.79,1.78,2.64,2.71l1,1.06.12,2.36a2.15,2.15,0,0,0,1.4,1.92,1.49,1.49,0,0,1-.84.69,1.62,1.62,0,0,0-1.26,1,2.09,2.09,0,0,0,.51,2l1.5,1.91a2.15,2.15,0,0,0,1.64,1,1.63,1.63,0,0,0,1.44-.93,1.83,1.83,0,0,1,.94-.76A2.15,2.15,0,0,0,162.86,38l0,.51c.11,3,.25,5.93.38,8.78.69,14.57,1.34,28.32-1.9,43.16a59.47,59.47,0,0,1-4.27,7.7l-.51.77.72.57,2,1.57,1.3,1,2.88,2.26.7.56.63-.65c5.83-6,10.13-12.82,14.36-22.89l5.25-8a3.3,3.3,0,0,0,.83-.65c.87-.93.8-2.46.64-3.69a7.18,7.18,0,0,0-1.78-3.57l-.29-.25a4.88,4.88,0,0,0-2.69-1.36l-.32,0v-.26c.11-4.13,0-7.58-.14-11.24s-.26-7.63-.17-12.47c.49-.3,1-.6,1.47-.92.88-.61,1.3-4.19,1.46-5.89l.94-.11a1.29,1.29,0,0,0,1.25,1h.12l.18,0a1.29,1.29,0,0,0,1.17-1.39v0l1.05-.09a1.25,1.25,0,0,0,.87-.46,1.27,1.27,0,0,0,.3-.94l-.24-2.58a1.28,1.28,0,0,0-1.28-1.17h-.12l-1,.1v-.13a1.27,1.27,0,0,0-.5-.9,1.28,1.28,0,0,0,.17-.75v0l1-.1a1.28,1.28,0,0,0,1.16-1.4l-.23-2.58A1.29,1.29,0,0,0,187,20.24h-.11l-1,.09v-.12A1.29,1.29,0,0,0,184.6,19h-.31a1.29,1.29,0,0,0-1.16,1.29l-.91.09c-.15-.91-.31-1.85-.48-2.81h.13A2.47,2.47,0,0,0,184.11,15h0v0a2.46,2.46,0,0,0-.88-1.67,2.6,2.6,0,0,0-.5-.31l.15-.17a2.42,2.42,0,0,0,.55-1.73h0v0A2.45,2.45,0,0,0,181,8.79h-.24l-.59.06-.3-.43,0-.16h-.05L179.53,8c-1.12-1.63-3.28-2.52-4.89-3a17.22,17.22,0,0,0-4.44-.65ZM165.64,26a2.77,2.77,0,0,1,.22-.46,2.93,2.93,0,0,1,2.51-1.41,2.89,2.89,0,0,1,1.38.35l-2.09.77-2,.75Zm16.35.1.68-.06.94-.1a1.27,1.27,0,0,0,.46.69,1.22,1.22,0,0,0-.17.61l-1.29.15-.58.07,0-1.36Zm-14.5,3.76,3.36-1.24A2.92,2.92,0,0,1,168.36,30a2.87,2.87,0,0,1-.87-.13Zm14.69,39-.13-.15a2.26,2.26,0,0,1-.35-.6l.13.15a2.26,2.26,0,0,1,.35.6Zm-5.24,1.42a11.65,11.65,0,0,0,.35-1.52,3.68,3.68,0,0,0,.37.69l-.19.22-.53.61ZM57.42,24l-.62.76A63,63,0,0,0,42.47,61.93l0,1.09L43.51,63l4.2-.17.9,0,0-.91a57,57,0,0,1,13-33.3l.64-.79-.8-.63-3.28-2.58-.77-.6ZM48.58,65l-1,0-4.18.18-1,0,0,1a63.23,63.23,0,0,0,4,20.67l.35.93.93-.35,3.91-1.45.94-.35-.35-.94A56.34,56.34,0,0,1,48.6,66l0-1Zm107.69,35.21-.59.72c-.45.52-.91,1.09-1.37,1.69a59,59,0,0,1-16.74,13.78,56.64,56.64,0,0,1-14.12,5.64c-1.46.37-3,.69-4.48.94l-.94.16.11.94v.12l.48,4,0,.13.12,1,1-.16c6.8-1,15.81-4.62,20.82-7.46a63.78,63.78,0,0,0,7-4.57,105.22,105.22,0,0,0,15.26-10.71l.93-.83-1-.73L157,100.78l-.76-.55Zm-40.62,23.23-1,.09c-1.69.15-6.28.39-9.14.39-.7,0-1.26,0-1.66,0l-2-.13,1.12,1.68,2.69,4.07.27.41.5,0h.73c.87,0,1.64.05,2.27.05,2,0,4-.09,5.92-.26l1-.09-.12-1v-.08l-.48-4.08v-.08l-.13-1Z"/></g></g></svg>